# Blender v2.93.1 OBJ File: 'extrude-destructive.blend'
# www.blender.org
mtllib ball-catch-1-rim-3.mtl
o ball-catch-1-rim-3_lowPoly.001_Cube.016
v -2.441518 1.784055 -0.288627
v -2.282244 1.655995 -0.203974
v -2.441518 1.784055 -0.328039
v -2.260524 1.638532 -0.231842
v -3.217995 0.818313 -0.328036
v -3.217995 0.818313 -0.288624
v -3.058721 0.690253 -0.203971
v -3.037001 0.672790 -0.231839
vt 0.067689 0.193109
vt 0.076649 0.211881
vt 0.078667 0.208385
vt 0.069901 0.192738
vt 0.076649 0.211881
vt 0.067689 0.193109
vt 0.000000 0.000000
vt 0.000000 0.000000
vn -0.6266 -0.7793 -0.0000
vn 0.2982 -0.2398 -0.9239
vn 0.6266 0.7793 0.0000
vn -0.2982 0.2398 0.9239
vn 0.5511 -0.4431 0.7071
vn -0.7793 0.6266 0.0000
usemtl Default_OBJ
s off
f 5/1/1 8/2/1 7/3/1
f 5/1/1 7/3/1 6/4/1
f 4/5/2 5/1/2 3/6/2
f 2/7/3 3/6/3 1/8/3
f 4/5/2 8/2/2 5/1/2
f 2/7/3 4/5/3 3/6/3
f 2/7/4 6/4/4 7/3/4
f 2/7/4 1/8/4 6/4/4
f 8/2/5 4/5/5 2/7/5
f 8/2/5 2/7/5 7/3/5
f 5/1/6 6/4/6 1/8/6
f 5/1/6 1/8/6 3/6/6
