# Blender v2.93.1 OBJ File: 'extrude-destructive.blend'
# www.blender.org
mtllib ball-catch-4.mtl
o ball-catch-4_lowPoly.001_Cube.005
v -1.354540 -0.782350 -0.288627
v -1.513814 -0.654290 -0.203974
v -1.195266 -0.910410 -0.203974
v -1.755893 -1.281532 -0.288627
v -1.915167 -1.153472 -0.203974
v -1.596619 -1.409592 -0.203974
v -1.129292 -0.963454 -0.000000
v -1.374400 -0.766382 -0.000000
v -1.579788 -0.601246 -0.000000
v -1.354540 -0.782350 0.288627
v -1.513814 -0.654290 0.203974
v -1.195266 -0.910410 0.203974
v -1.775753 -1.265564 -0.000000
v -1.981141 -1.100428 -0.000000
v -1.755893 -1.281532 0.288626
v -1.915167 -1.153472 0.203973
v -1.596619 -1.409592 0.203973
v -1.530645 -1.462636 -0.000000
vt 0.000000 0.000000
vt 0.000000 0.000000
vt 0.000000 0.000000
vt 0.000000 0.000000
vt 0.000000 0.000000
vt 0.000000 0.000000
vt 0.000000 0.000000
vt 0.000000 0.000000
vt 0.000000 0.000000
vt 0.000000 0.000000
vt 0.000000 0.000000
vt 0.000000 0.000000
vt 0.000000 0.000000
vt 0.000000 0.000000
vt 0.000000 0.000000
vt 0.000000 0.000000
vt 0.000000 0.000000
vt 0.691994 0.588102
vt 0.692551 0.586603
vt 0.690482 0.586853
vt 0.691889 0.585232
vt 0.690493 0.588758
vt 0.690469 0.584723
vt 0.691994 0.588102
vt 0.692551 0.586603
vt 0.691889 0.585232
vn 0.7198 -0.5787 -0.3833
vn -0.7198 0.5787 -0.3833
vn -0.2982 0.2398 -0.9239
vn 0.2982 -0.2398 -0.9239
vn 0.6266 0.7793 0.0000
vn 0.7198 -0.5787 0.3833
vn -0.7198 0.5787 0.3833
vn -0.2982 0.2398 0.9239
vn 0.2982 -0.2398 0.9239
vn -0.6266 -0.7793 -0.0000
usemtl Default_OBJ
s off
f 18/1/1 3/2/1 7/3/1
f 5/4/2 9/5/2 2/6/2
f 1/7/3 5/4/3 2/6/3
f 3/2/4 4/8/4 1/7/4
f 8/9/5 1/7/5 2/6/5
f 8/9/5 2/6/5 9/5/5
f 1/7/5 8/9/5 3/2/5
f 8/9/5 7/3/5 3/2/5
f 12/10/6 18/1/6 7/3/6
f 9/5/7 16/11/7 11/12/7
f 10/13/8 16/11/8 15/14/8
f 12/10/9 15/14/9 17/15/9
f 8/9/5 11/12/5 10/13/5
f 8/9/5 9/5/5 11/12/5
f 10/13/5 12/10/5 8/9/5
f 8/9/5 12/10/5 7/3/5
f 18/1/1 6/16/1 3/2/1
f 5/4/2 14/17/2 9/5/2
f 1/7/3 4/8/3 5/4/3
f 3/2/4 6/16/4 4/8/4
f 12/10/6 17/15/6 18/1/6
f 9/5/7 14/17/7 16/11/7
f 10/13/8 11/12/8 16/11/8
f 12/10/9 10/13/9 15/14/9
s 1
f 5/18/10 4/19/10 13/20/10
f 13/20/10 4/19/10 6/21/10
f 5/18/10 13/20/10 14/22/10
f 13/20/10 6/21/10 18/23/10
f 16/24/10 13/20/10 15/25/10
f 13/20/10 17/26/10 15/25/10
f 16/24/10 14/22/10 13/20/10
f 13/20/10 18/23/10 17/26/10
