# Blender v2.93.1 OBJ File: 'extrude-destructive.blend'
# www.blender.org
mtllib ball-catch-3-rim-1.mtl
o ball-catch-3-rim-1_lowPoly.001_Cube.029
v -1.304481 0.869853 -0.231843
v -1.282762 0.852391 -0.203974
v -2.321708 -0.395322 -0.231836
v -2.299989 -0.412784 -0.203967
v -1.348735 0.905435 0.000000
v -1.379451 0.930131 0.000000
v -2.396678 -0.335044 -0.000000
v -2.365962 -0.359740 -0.000000
vt 0.071684 0.076459
vt 0.068333 0.089331
vt 0.065875 0.089038
vt 0.073153 0.077702
vt 0.071684 0.076459
vt 0.065875 0.089038
vt 0.068333 0.089331
vt 0.073153 0.077702
vn 0.6266 0.7793 -0.0000
vn -0.6266 -0.7793 0.0000
vn -0.7198 0.5788 -0.3832
vn 0.7198 -0.5787 0.3833
vn -0.7198 0.5788 -0.3833
vn 0.5511 -0.4431 -0.7071
vn -0.0000 -0.0000 1.0000
usemtl Default_OBJ
s off
f 6/1/1 2/2/1 1/3/1
f 6/1/1 5/4/1 2/2/1
f 7/5/2 3/6/2 4/7/2
f 7/5/2 4/7/2 8/8/2
f 6/1/3 1/3/3 3/6/3
f 5/4/4 8/8/4 4/7/4
f 6/1/5 3/6/5 7/5/5
f 5/4/4 4/7/4 2/2/4
f 4/7/6 3/6/6 1/3/6
f 4/7/6 1/3/6 2/2/6
f 7/5/7 8/8/7 5/4/7
f 7/5/7 5/4/7 6/1/7
