# Blender v2.93.1 OBJ File: 'extrude-destructive.blend'
# www.blender.org
mtllib ball-catch-3.mtl
o ball-catch-3_lowPoly.001_Cube.004
v -1.679737 -0.293660 -0.203974
v -1.839011 -0.165600 -0.288627
v -1.998285 -0.037540 -0.203974
v -2.052966 -0.757862 -0.203973
v -2.371514 -0.501742 -0.203973
v -2.212240 -0.629802 -0.288626
v -1.613763 -0.346704 -0.000000
v -1.679737 -0.293660 0.203974
v -1.835193 -0.168669 -0.000000
v -1.839011 -0.165600 0.288627
v -2.064258 0.015504 0.000000
v -1.998285 -0.037540 0.203974
v -1.986992 -0.810906 -0.000000
v -2.052966 -0.757862 0.203973
v -2.208422 -0.632871 -0.000000
v -2.437487 -0.448698 -0.000000
v -2.371514 -0.501742 0.203973
v -2.212240 -0.629802 0.288626
vt 0.258666 0.024681
vt 0.267206 0.033221
vt 0.252730 0.039012
vt 0.267206 0.045298
vt 0.258666 0.053837
vt 0.000000 0.000000
vt 0.000000 0.000000
vt 0.000000 0.000000
vt 0.258666 0.024681
vt 0.252730 0.039012
vt 0.267206 0.033221
vt 0.267206 0.045298
vt 0.258666 0.053837
vt 0.000000 0.000000
vt 0.000000 0.000000
vt 0.000000 0.000000
vt 0.267206 0.033221
vt 0.267206 0.045298
vt 0.258666 0.053837
vt 0.000000 0.000000
vt 0.267206 0.033221
vt 0.267206 0.045298
vt 0.258666 0.053837
vt 0.000000 0.000000
vn 0.6266 0.7793 -0.0000
vn -0.6266 -0.7793 0.0000
vn 0.2982 -0.2398 -0.9239
vn -0.7198 0.5787 -0.3833
vn -0.2982 0.2398 -0.9239
vn 0.7198 -0.5787 -0.3833
vn 0.2982 -0.2398 0.9239
vn -0.7198 0.5787 0.3833
vn -0.2982 0.2398 0.9239
vn 0.7198 -0.5787 0.3833
usemtl Default_OBJ
s off
f 7/1/1 1/2/1 9/3/1
f 1/2/1 2/4/1 9/3/1
f 2/4/1 3/5/1 9/3/1
f 11/6/1 9/7/1 3/8/1
f 13/9/2 15/10/2 4/11/2
f 4/11/2 15/10/2 6/12/2
f 6/12/2 15/10/2 5/13/2
f 16/14/2 5/15/2 15/16/2
f 1/2/3 6/12/3 2/4/3
f 5/15/4 11/6/4 3/8/4
f 6/12/5 3/5/5 2/4/5
f 13/9/6 1/2/6 7/1/6
f 7/1/1 9/3/1 8/17/1
f 8/17/1 9/3/1 10/18/1
f 10/18/1 9/3/1 12/19/1
f 11/6/1 12/20/1 9/7/1
f 13/9/2 14/21/2 15/10/2
f 14/21/2 18/22/2 15/10/2
f 18/22/2 17/23/2 15/10/2
f 16/14/2 15/16/2 17/24/2
f 8/17/7 18/22/7 14/21/7
f 11/6/8 17/24/8 12/20/8
f 12/19/9 18/22/9 10/18/9
f 8/17/10 13/9/10 7/1/10
f 1/2/3 4/11/3 6/12/3
f 5/15/4 16/14/4 11/6/4
f 6/12/5 5/13/5 3/5/5
f 13/9/6 4/11/6 1/2/6
f 8/17/7 10/18/7 18/22/7
f 11/6/8 16/14/8 17/24/8
f 12/19/9 17/23/9 18/22/9
f 8/17/10 14/21/10 13/9/10
