# Blender v2.93.1 OBJ File: 'extrude-destructive.blend'
# www.blender.org
mtllib ball-catch-1-rim-8.mtl
o ball-catch-1-rim-8_lowPoly.001_Cube.018
v -2.600791 1.912114 0.203974
v -2.666766 1.965158 0.000000
v -2.622511 1.929577 0.231843
v -2.697481 1.989854 0.000000
v -3.398987 0.963835 0.231841
v -3.377267 0.946372 0.203972
v -3.443243 0.999416 0.000000
v -3.473958 1.024112 0.000000
vt 0.000000 0.000000
vt 0.000000 0.000000
vt 0.000000 0.000000
vt 0.000000 0.000000
vt 0.000000 0.000000
vt 0.000000 0.000000
vt 0.000000 0.000000
vt 0.000000 0.000000
vn -0.6266 -0.7793 0.0000
vn -0.7198 0.5788 0.3832
vn 0.6266 0.7793 -0.0000
vn 0.7198 -0.5787 -0.3833
vn 0.5511 -0.4431 0.7071
vn -0.0000 0.0000 -1.0000
usemtl Default_OBJ.001
s off
f 5/1/1 7/2/1 6/3/1
f 5/1/1 8/4/1 7/2/1
f 4/5/2 8/4/2 5/1/2
f 2/6/3 4/5/3 3/7/3
f 4/5/2 5/1/2 3/7/2
f 2/6/3 3/7/3 1/8/3
f 2/6/4 1/8/4 6/3/4
f 6/3/5 1/8/5 3/7/5
f 6/3/5 3/7/5 5/1/5
f 2/6/4 6/3/4 7/2/4
f 8/4/6 4/5/6 2/6/6
f 8/4/6 2/6/6 7/2/6
