# Blender v2.93.1 OBJ File: 'extrude-destructive.blend'
# www.blender.org
mtllib ball-catch-3-rim-7.mtl
o ball-catch-3-rim-7_lowPoly.001_Cube.011
v -1.123488 0.724331 0.328039
v -1.304481 0.869853 0.231843
v -1.282762 0.852391 0.203974
v -1.123488 0.724331 0.288627
v -2.321708 -0.395322 0.231836
v -2.299989 -0.412784 0.203967
v -2.140715 -0.540844 0.288620
v -2.140715 -0.540844 0.328032
vt 0.065875 0.089038
vt 0.068543 0.104584
vt 0.070701 0.103372
vt 0.068333 0.089331
vt 0.068543 0.104584
vt 0.070701 0.103372
vt 0.065875 0.089038
vt 0.068333 0.089331
vn 0.6266 0.7793 0.0000
vn 0.7793 -0.6266 0.0000
vn -0.6266 -0.7793 0.0000
vn 0.2982 -0.2398 -0.9239
vn -0.2982 0.2398 0.9239
vn -0.5511 0.4431 -0.7071
usemtl Default_OBJ
s off
f 2/1/1 1/2/1 4/3/1
f 2/1/1 4/3/1 3/4/1
f 4/3/2 1/2/2 8/5/2
f 4/3/2 8/5/2 7/6/2
f 5/7/3 7/6/3 8/5/3
f 5/7/3 6/8/3 7/6/3
f 3/4/4 7/6/4 6/8/4
f 2/1/5 8/5/5 1/2/5
f 3/4/4 4/3/4 7/6/4
f 2/1/5 5/7/5 8/5/5
f 6/8/6 2/1/6 3/4/6
f 6/8/6 5/7/6 2/1/6
