# Blender v2.93.1 OBJ File: 'extrude-destructive.blend'
# www.blender.org
mtllib ball-catch-1.mtl
o ball-catch-1_lowPoly.001_Cube.001
v -3.044940 1.359704 -0.203974
v -2.885666 1.231644 -0.288627
v -2.726393 1.103585 -0.203974
v -3.446293 0.860522 -0.203973
v -3.287019 0.732462 -0.288626
v -3.127747 0.604403 -0.203973
v -2.660419 1.050541 0.000000
v -2.887068 1.232772 0.000000
v -3.110915 1.412748 0.000000
v -3.044940 1.359704 0.203974
v -2.885666 1.231644 0.288627
v -2.726393 1.103585 0.203974
v -3.512269 0.913566 0.000000
v -3.446293 0.860522 0.203974
v -3.061772 0.551359 0.000000
v -3.288422 0.733590 0.000000
v -3.287019 0.732462 0.288627
v -3.127747 0.604403 0.203974
vt 0.000000 0.000000
vt 0.000000 0.000000
vt 0.000000 0.000000
vt 0.000000 0.000000
vt 0.000000 0.000000
vt 0.000000 0.000000
vt 0.000000 0.000000
vt 0.000000 0.000000
vt 0.000000 0.000000
vt 0.000000 0.000000
vt 0.000000 0.000000
vt 0.000000 0.000000
vt 0.000000 0.000000
vt 0.000000 0.000000
vt 0.000000 0.000000
vt 0.000000 0.000000
vt 0.000000 0.000000
vt 0.248104 0.093595
vt 0.256643 0.085056
vt 0.242028 0.079108
vt 0.256643 0.072978
vt 0.248104 0.064439
vt 0.236027 0.093595
vt 0.248104 0.093595
vt 0.256643 0.085056
vt 0.256643 0.072978
vn 0.7198 -0.5787 -0.3833
vn -0.2982 0.2398 -0.9239
vn -0.7198 0.5787 -0.3833
vn 0.2982 -0.2398 -0.9239
vn 0.6266 0.7793 -0.0000
vn 0.7198 -0.5787 0.3833
vn -0.2982 0.2398 0.9239
vn -0.7198 0.5787 0.3833
vn 0.2982 -0.2398 0.9239
vn -0.6266 -0.7793 -0.0000
usemtl Default_OBJ
s off
f 3/1/1 7/2/1 15/3/1
f 1/4/2 2/5/2 5/6/2
f 9/7/3 1/4/3 4/8/3
f 3/1/4 6/9/4 5/6/4
f 8/10/5 7/2/5 3/1/5
f 3/1/5 2/5/5 8/10/5
f 2/5/5 1/4/5 8/10/5
f 9/7/5 8/10/5 1/4/5
f 3/1/1 15/3/1 6/9/1
f 1/4/2 5/6/2 4/8/2
f 9/7/3 4/8/3 13/11/3
f 3/1/4 5/6/4 2/5/4
f 12/12/6 15/3/6 7/2/6
f 10/13/7 17/14/7 11/15/7
f 9/7/8 14/16/8 10/13/8
f 12/12/9 17/14/9 18/17/9
f 8/10/5 12/12/5 7/2/5
f 12/12/5 8/10/5 11/15/5
f 11/15/5 8/10/5 10/13/5
f 9/7/5 10/13/5 8/10/5
f 12/12/6 18/17/6 15/3/6
f 10/13/7 14/16/7 17/14/7
f 9/7/8 13/11/8 14/16/8
f 12/12/9 11/15/9 17/14/9
s 1
f 4/18/10 5/19/10 16/20/10
f 6/21/10 15/22/10 16/20/10
f 4/18/10 16/20/10 13/23/10
f 6/21/10 16/20/10 5/19/10
f 14/24/10 16/20/10 17/25/10
f 18/26/10 16/20/10 15/22/10
f 14/24/10 13/23/10 16/20/10
f 18/26/10 17/25/10 16/20/10
