# Blender v2.93.1 OBJ File: 'extrude-destructive.blend'
# www.blender.org
mtllib ball-catch-2-rim-5.mtl
o ball-catch-2-rim-5_lowPoly.001_Cube.021
v -1.571390 1.084454 0.231842
v -1.496420 1.024176 0.000000
v -1.527135 1.048872 0.000000
v -1.593109 1.101916 0.203974
v -2.509018 -0.081708 0.231853
v -2.434048 -0.141986 -0.000000
v -2.530737 -0.064246 0.203985
v -2.464763 -0.117290 -0.000000
vt 0.155511 0.042990
vt 0.156456 0.039388
vt 0.135344 0.046702
vt 0.137651 0.049130
vt 0.155511 0.042990
vt 0.135344 0.046702
vt 0.156456 0.039388
vt 0.137651 0.049130
vn 0.6266 0.7793 -0.0000
vn -0.6266 -0.7793 0.0000
vn 0.7198 -0.5788 0.3832
vn -0.7198 0.5787 -0.3833
vn -0.0000 0.0000 -1.0000
vn -0.5511 0.4431 0.7071
usemtl Default_OBJ.003
s off
f 4/1/1 1/2/1 2/3/1
f 4/1/1 2/3/1 3/4/1
f 7/5/2 6/6/2 5/7/2
f 7/5/2 8/8/2 6/6/2
f 6/6/3 1/2/3 5/7/3
f 4/1/4 3/4/4 8/8/4
f 4/1/4 8/8/4 7/5/4
f 6/6/3 2/3/3 1/2/3
f 2/3/5 8/8/5 3/4/5
f 2/3/5 6/6/5 8/8/5
f 4/1/6 5/7/6 1/2/6
f 4/1/6 7/5/6 5/7/6
