# Blender v2.93.1 OBJ File: 'extrude-destructive.blend'
# www.blender.org
mtllib ball-catch-1-rim-5.mtl
o ball-catch-1-rim-5_lowPoly.001_Cube.009
v -2.282244 1.655995 0.203974
v -2.216270 1.602951 0.000000
v -2.260524 1.638532 0.231842
v -2.185555 1.578255 0.000000
v -3.058721 0.690253 0.203971
v -3.037001 0.672790 0.231839
v -2.992746 0.637209 0.000000
v -2.962031 0.612513 0.000000
vt 0.076649 0.211881
vt 0.076649 0.211881
vt 0.000000 0.000000
vt 0.078667 0.208385
vt 0.099147 0.206268
vt 0.100984 0.209496
vt 0.000000 0.000000
vt 0.100984 0.209496
vn -0.5511 0.4431 0.7071
vn -0.6266 -0.7793 -0.0000
vn -0.0000 0.0000 -1.0000
vn 0.7198 -0.5788 0.3832
vn 0.6266 0.7793 -0.0000
vn -0.7198 0.5787 -0.3833
usemtl Default_OBJ
s off
f 6/1/1 3/2/1 1/3/1
f 6/1/1 1/3/1 5/4/1
f 6/1/2 7/5/2 8/6/2
f 6/1/2 5/4/2 7/5/2
f 7/5/3 2/7/3 4/8/3
f 7/5/3 4/8/3 8/6/3
f 4/8/4 3/2/4 6/1/4
f 2/7/5 1/3/5 3/2/5
f 4/8/4 6/1/4 8/6/4
f 2/7/5 3/2/5 4/8/5
f 2/7/6 7/5/6 5/4/6
f 2/7/6 5/4/6 1/3/6
