# Blender v2.93.1 OBJ File: 'extrude-destructive.blend'
# www.blender.org
mtllib ball-catch-3-rim-6.mtl
o ball-catch-3-rim-6_lowPoly.001_Cube.034
v -1.123488 0.724331 0.328039
v -1.123488 0.724331 0.288627
v -0.964214 0.596272 0.203974
v -0.942495 0.578809 0.231842
v -1.959722 -0.686366 0.231835
v -2.140715 -0.540844 0.288620
v -1.981441 -0.668903 0.203967
v -2.140715 -0.540844 0.328032
vt 0.068543 0.104584
vt 0.084714 0.120553
vt 0.085615 0.116190
vt 0.070701 0.103372
vt 0.068543 0.104584
vt 0.085615 0.116190
vt 0.084714 0.120553
vt 0.070701 0.103372
vn 0.6266 0.7793 0.0000
vn -0.6266 -0.7793 -0.0000
vn -0.7793 0.6266 0.0000
vn 0.5511 -0.4431 -0.7071
vn -0.2982 0.2398 -0.9239
vn 0.2982 -0.2398 0.9239
usemtl Default_OBJ.004
s off
f 1/1/1 4/2/1 3/3/1
f 1/1/1 3/3/1 2/4/1
f 8/5/2 7/6/2 5/7/2
f 2/4/3 6/8/3 8/5/3
f 8/5/2 6/8/2 7/6/2
f 2/4/3 8/5/3 1/1/3
f 5/7/4 7/6/4 3/3/4
f 5/7/4 3/3/4 4/2/4
f 2/4/5 7/6/5 6/8/5
f 4/2/6 8/5/6 5/7/6
f 2/4/5 3/3/5 7/6/5
f 4/2/6 1/1/6 8/5/6
