# Blender v2.93.1 OBJ File: 'extrude-destructive.blend'
# www.blender.org
mtllib ball-catch-2.mtl
o ball-catch-2_lowPoly.001_Cube.003
v -2.357505 0.477356 -0.288627
v -2.516779 0.605416 -0.203974
v -2.198231 0.349296 -0.203974
v -2.918132 0.106234 -0.203973
v -2.599585 -0.149886 -0.203973
v -2.758859 -0.021826 -0.288626
v -2.365163 0.483514 0.000000
v -2.582753 0.658460 0.000000
v -2.132258 0.296252 0.000000
v -2.357505 0.477356 0.288627
v -2.516779 0.605416 0.203974
v -2.198231 0.349296 0.203974
v -2.984107 0.159278 0.000000
v -2.918132 0.106234 0.203973
v -2.533611 -0.202930 -0.000000
v -2.599585 -0.149886 0.203973
v -2.766517 -0.015668 -0.000000
v -2.758859 -0.021826 0.288626
vt 0.000000 0.000000
vt 0.000000 0.000000
vt 0.000000 0.000000
vt 0.000000 0.000000
vt 0.000000 0.000000
vt 0.000000 0.000000
vt 0.000000 0.000000
vt 0.000000 0.000000
vt 0.000000 0.000000
vt 0.000000 0.000000
vt 0.000000 0.000000
vt 0.000000 0.000000
vt 0.000000 0.000000
vt 0.000000 0.000000
vt 0.000000 0.000000
vt 0.000000 0.000000
vt 0.000000 0.000000
vt 0.238613 0.129938
vt 0.245895 0.122656
vt 0.233289 0.117930
vt 0.245895 0.112359
vt 0.228315 0.129938
vt 0.238613 0.105077
vt 0.238613 0.129938
vt 0.245895 0.122656
vt 0.245895 0.112359
vn 0.7198 -0.5787 -0.3833
vn 0.2982 -0.2398 -0.9239
vn -0.7198 0.5787 -0.3833
vn -0.2982 0.2398 -0.9239
vn 0.6266 0.7793 -0.0000
vn 0.7198 -0.5787 0.3833
vn 0.2982 -0.2398 0.9239
vn -0.7198 0.5787 0.3833
vn -0.2982 0.2398 0.9239
vn -0.6266 -0.7793 0.0000
usemtl Default_OBJ
s off
f 9/1/1 5/2/1 3/3/1
f 3/3/2 6/4/2 1/5/2
f 4/6/3 8/7/3 2/8/3
f 1/5/4 4/6/4 2/8/4
f 9/1/5 3/3/5 7/9/5
f 3/3/5 1/5/5 7/9/5
f 2/8/5 7/9/5 1/5/5
f 8/7/5 7/9/5 2/8/5
f 9/1/6 16/10/6 15/11/6
f 12/12/7 18/13/7 16/10/7
f 8/7/8 14/14/8 11/15/8
f 10/16/9 14/14/9 18/13/9
f 9/1/5 7/9/5 12/12/5
f 12/12/5 7/9/5 10/16/5
f 11/15/5 10/16/5 7/9/5
f 8/7/5 11/15/5 7/9/5
f 9/1/1 15/11/1 5/2/1
f 3/3/2 5/2/2 6/4/2
f 4/6/3 13/17/3 8/7/3
f 1/5/4 6/4/4 4/6/4
f 9/1/6 12/12/6 16/10/6
f 12/12/7 10/16/7 18/13/7
f 8/7/8 13/17/8 14/14/8
f 10/16/9 11/15/9 14/14/9
s 1
f 4/18/10 6/19/10 17/20/10
f 17/20/10 6/19/10 5/21/10
f 4/18/10 17/20/10 13/22/10
f 17/20/10 5/21/10 15/23/10
f 14/24/10 17/20/10 18/25/10
f 17/20/10 16/26/10 18/25/10
f 14/24/10 13/22/10 17/20/10
f 17/20/10 15/23/10 16/26/10
