# Blender v2.93.1 OBJ File: 'extrude-destructive.blend'
# www.blender.org
mtllib ball-catch-1-rim-2.mtl
o ball-catch-1-rim-2_lowPoly.001_Cube.017
v -2.600791 1.912114 -0.203974
v -2.441518 1.784055 -0.288627
v -2.441518 1.784055 -0.328039
v -2.622511 1.929577 -0.231843
v -3.217995 0.818313 -0.328036
v -3.398987 0.963835 -0.231840
v -3.377267 0.946372 -0.203971
v -3.217995 0.818313 -0.288624
vt 0.067689 0.193109
vt 0.069901 0.192738
vt 0.072431 0.180365
vt 0.070484 0.179518
vt 0.070484 0.179518
vt 0.067689 0.193109
vt 0.000000 0.000000
vt 0.000000 0.000000
vt 0.000000 0.000000
vn -0.6266 -0.7793 0.0000
vn -0.2982 0.2398 -0.9239
vn 0.6266 0.7793 0.0000
vn 0.2982 -0.2398 0.9239
vn 0.7793 -0.6266 0.0000
vn -0.5511 0.4431 0.7071
usemtl Default_OBJ.001
s off
f 5/1/1 8/2/1 7/3/1
f 5/1/1 7/3/1 6/4/1
f 5/1/2 4/5/2 3/6/2
f 1/7/3 3/6/3 4/8/3
f 5/1/2 6/4/2 4/5/2
f 1/7/3 2/9/3 3/6/3
f 2/9/4 7/3/4 8/2/4
f 2/9/4 1/7/4 7/3/4
f 5/1/5 3/6/5 2/9/5
f 5/1/5 2/9/5 8/2/5
f 7/3/6 1/7/6 4/5/6
f 7/3/6 4/5/6 6/4/6
