# Blender v2.93.1 OBJ File: 'extrude-destructive.blend'
# www.blender.org
mtllib ball-catch-5.mtl
o ball-catch-5_lowPoly.001_Cube.006
v -0.733078 -1.282018 -0.288627
v -0.892352 -1.153958 -0.203974
v -0.573804 -1.410078 -0.203974
v -1.120141 -1.763426 -0.288626
v -1.279415 -1.635366 -0.203973
v -0.960867 -1.891486 -0.203974
v -0.958325 -1.100914 -0.000000
v -0.733078 -1.282018 0.288627
v -0.892352 -1.153958 0.203974
v -0.507830 -1.463122 -0.000000
v -0.573804 -1.410078 0.203974
v -0.733078 -1.282018 -0.000000
v -1.120141 -1.763426 0.288626
v -1.279415 -1.635366 0.203973
v -0.960867 -1.891486 0.203973
v -1.345388 -1.582322 -0.000000
v -0.894893 -1.944530 -0.000000
v -1.120141 -1.763426 -0.000000
vt 0.000000 0.000000
vt 0.000000 0.000000
vt 0.000000 0.000000
vt 0.000000 0.000000
vt 0.000000 0.000000
vt 0.000000 0.000000
vt 0.000000 0.000000
vt 0.000000 0.000000
vt 0.000000 0.000000
vt 0.000000 0.000000
vt 0.000000 0.000000
vt 0.000000 0.000000
vt 0.000000 0.000000
vt 0.000000 0.000000
vt 0.000000 0.000000
vt 0.000000 0.000000
vt 0.000000 0.000000
vt 0.000000 0.000000
vn 0.6266 0.7793 -0.0000
vn -0.6266 -0.7793 0.0000
vn 0.7198 -0.5787 -0.3833
vn 0.2982 -0.2398 -0.9239
vn -0.7198 0.5787 -0.3833
vn -0.2982 0.2398 -0.9239
vn 0.7198 -0.5787 0.3833
vn 0.2982 -0.2398 0.9239
vn -0.7198 0.5787 0.3833
vn -0.2982 0.2398 0.9239
usemtl Default_OBJ
s off
f 2/1/1 7/2/1 12/3/1
f 2/1/1 12/3/1 1/4/1
f 3/5/1 1/4/1 12/3/1
f 10/6/1 3/5/1 12/3/1
f 5/7/2 18/8/2 16/9/2
f 5/7/2 4/10/2 18/8/2
f 6/11/2 18/8/2 4/10/2
f 17/12/2 18/8/2 6/11/2
f 3/5/3 10/6/3 17/12/3
f 3/5/4 6/11/4 4/10/4
f 3/5/4 4/10/4 1/4/4
f 7/2/5 2/1/5 5/7/5
f 2/1/6 1/4/6 4/10/6
f 3/5/3 17/12/3 6/11/3
f 7/2/5 5/7/5 16/9/5
f 2/1/6 4/10/6 5/7/6
f 9/13/1 12/3/1 7/2/1
f 9/13/1 8/14/1 12/3/1
f 11/15/1 12/3/1 8/14/1
f 10/6/1 12/3/1 11/15/1
f 14/16/2 16/9/2 18/8/2
f 14/16/2 18/8/2 13/17/2
f 15/18/2 13/17/2 18/8/2
f 17/12/2 15/18/2 18/8/2
f 11/15/7 17/12/7 10/6/7
f 11/15/8 13/17/8 15/18/8
f 11/15/8 8/14/8 13/17/8
f 7/2/9 14/16/9 9/13/9
f 9/13/10 13/17/10 8/14/10
f 11/15/7 15/18/7 17/12/7
f 7/2/9 16/9/9 14/16/9
f 9/13/10 14/16/10 13/17/10
