# Blender v2.93.1 OBJ File: 'extrude-destructive.blend'
# www.blender.org
mtllib board-14b.mtl
o board-14a_lowPoly.001_Cube.050
v -0.643905 -0.359754 -0.000000
v -0.709878 -0.306710 0.203974
v -0.855422 -0.189689 0.815238
v -0.592127 -0.401384 -0.000000
v -1.336478 -1.086051 0.203977
v -1.482022 -0.969030 0.815241
v -1.218727 -1.180725 -0.000000
v -1.270505 -1.139095 -0.000000
vt 0.700013 0.576388
vt 0.744461 0.577831
vt 0.690388 0.562434
vt 0.690408 0.574236
vt 0.700013 0.576388
vt 0.690388 0.562434
vt 0.744461 0.577831
vt 0.690408 0.574236
vn 0.6266 0.7793 -0.0000
vn -0.6266 -0.7793 0.0000
vn -0.7198 0.5787 -0.3833
vn -0.7453 0.5993 -0.2922
vn 0.0000 0.0000 -1.0000
vn 0.7200 -0.5789 0.3828
usemtl Default_OBJ
s off
f 2/1/1 3/2/1 4/3/1
f 2/1/1 4/3/1 1/4/1
f 5/5/2 7/6/2 6/7/2
f 5/5/2 8/8/2 7/6/2
f 5/5/3 2/1/3 1/4/3
f 3/2/4 2/1/4 5/5/4
f 1/4/5 4/3/5 7/6/5
f 7/6/6 4/3/6 3/2/6
f 5/5/3 1/4/3 8/8/3
f 3/2/4 5/5/4 6/7/4
f 1/4/5 7/6/5 8/8/5
f 7/6/6 3/2/6 6/7/6
