# Blender v2.93.1 OBJ File: 'extrude-destructive.blend'
# www.blender.org
mtllib board-05a.mtl
o board-05a_lowPoly.001_Cube.041
v -0.022443 -0.859422 0.000398
v -0.088416 -0.806378 -0.203974
v -0.185581 -0.728256 -0.815238
v 0.013311 -0.888169 0.000393
v -0.715022 -1.585714 -0.203974
v -0.812187 -1.507592 -0.815238
v -0.613295 -1.667505 0.000393
v -0.649049 -1.638758 0.000398
vt 0.699746 0.495930
vt 0.689523 0.471608
vt 0.746478 0.490365
vt 0.689526 0.493765
vt 0.699746 0.495930
vt 0.746478 0.490365
vt 0.689523 0.471608
vt 0.689526 0.493765
vn 0.6266 0.7793 -0.0000
vn -0.6266 -0.7793 0.0000
vn -0.7200 0.5789 0.3827
vn -0.7636 0.6140 0.1998
vn 0.0001 -0.0001 1.0000
vn 0.7438 -0.5980 -0.2986
usemtl Default_OBJ
s off
f 2/1/1 4/2/1 3/3/1
f 2/1/1 1/4/1 4/2/1
f 5/5/2 6/6/2 7/7/2
f 5/5/2 7/7/2 8/8/2
f 5/5/3 1/4/3 2/1/3
f 3/3/4 5/5/4 2/1/4
f 8/8/5 4/2/5 1/4/5
f 7/7/6 3/3/6 4/2/6
f 5/5/3 8/8/3 1/4/3
f 3/3/4 6/6/4 5/5/4
f 8/8/5 7/7/5 4/2/5
f 7/7/6 6/6/6 3/3/6
