# Blender v2.93.1 OBJ File: 'extrude-destructive.blend'
# www.blender.org
mtllib board-15b.mtl
o board-15a_lowPoly.001_Cube.051
v -0.869153 -0.178650 0.288627
v -0.709878 -0.306710 0.203974
v -0.855422 -0.189689 0.815238
v -1.336480 -1.086049 0.203975
v -1.482024 -0.969028 0.815239
v -1.495755 -0.957989 0.288628
vt 0.744461 0.577831
vt 0.700013 0.576388
vt 0.705332 0.585264
vt 0.744461 0.577831
vt 0.705332 0.585264
vt 0.700013 0.576388
vn 0.6266 0.7793 -0.0000
vn -0.6266 -0.7793 0.0000
vn -0.7789 0.6263 0.0334
vn -0.2982 0.2398 -0.9239
vn 0.7453 -0.5993 0.2922
usemtl Default_OBJ
s off
f 3/1/1 2/2/1 1/3/1
f 5/4/2 6/5/2 4/6/2
f 5/4/3 3/1/3 1/3/3
f 1/3/4 2/2/4 4/6/4
f 4/6/5 2/2/5 3/1/5
f 5/4/3 1/3/3 6/5/3
f 1/3/4 4/6/4 6/5/4
f 4/6/5 3/1/5 5/4/5
