# Blender v2.93.1 OBJ File: 'extrude-destructive.blend'
# www.blender.org
mtllib board-16a.mtl
o board-16a_lowPoly.001_Cube.052
v -0.869153 -0.178650 -0.288627
v -1.028427 -0.050590 -0.203974
v -0.855422 -0.189689 -0.815238
v -1.464586 0.300091 -0.328039
v -1.491075 0.321388 -1.153083
v -1.283593 0.154568 -0.231842
v -2.091190 -0.479247 -0.328039
v -2.117679 -0.457950 -1.153083
v -1.910197 -0.624770 -0.231842
v -1.495757 -0.957988 -0.288627
v -1.655030 -0.829928 -0.203974
v -1.482026 -0.969027 -0.815238
vt 0.716802 0.643020
vt 0.705332 0.585264
vt 0.744461 0.577831
vt 0.784627 0.637833
vt 0.707904 0.623900
vt 0.701752 0.596745
vt 0.716802 0.643020
vt 0.744461 0.577831
vt 0.705332 0.585264
vt 0.784627 0.637833
vt 0.707904 0.623900
vt 0.701752 0.596745
vn 0.6266 0.7793 0.0000
vn -0.6266 -0.7793 -0.0000
vn 0.2982 -0.2398 0.9239
vn -0.7787 0.6261 0.0412
vn 0.2982 -0.2398 -0.9239
vn 0.7789 -0.6263 0.0334
vn -0.2982 0.2398 0.9239
vn -0.0661 0.0531 0.9964
usemtl Default_OBJ
s off
f 4/1/1 1/2/1 3/3/1
f 4/1/1 3/3/1 5/4/1
f 6/5/1 1/2/1 4/1/1
f 6/5/1 2/6/1 1/2/1
f 7/7/2 12/8/2 10/9/2
f 7/7/2 8/10/2 12/8/2
f 9/11/2 7/7/2 10/9/2
f 9/11/2 10/9/2 11/12/2
f 11/12/3 1/2/3 2/6/3
f 5/4/4 7/7/4 4/1/4
f 12/8/5 5/4/5 3/3/5
f 1/2/6 12/8/6 3/3/6
f 7/7/7 6/5/7 4/1/7
f 6/5/8 11/12/8 2/6/8
f 11/12/3 10/9/3 1/2/3
f 5/4/4 8/10/4 7/7/4
f 12/8/5 8/10/5 5/4/5
f 1/2/6 10/9/6 12/8/6
f 7/7/7 9/11/7 6/5/7
f 6/5/8 9/11/8 11/12/8
