# Blender v2.93.1 OBJ File: 'extrude-destructive.blend'
# www.blender.org
mtllib board-21a.mtl
o board-21a_lowPoly.001_Cube.057
v -2.274475 0.951258 -0.231842
v -2.126727 0.832465 -0.815237
v -2.390022 1.044160 0.000393
v -2.371030 1.028891 0.000398
v -3.016621 0.264818 0.000397
v -2.997629 0.249549 0.000402
v -2.901074 0.171916 -0.231838
v -2.753326 0.053123 -0.815233
vt 0.712225 0.729990
vt 0.691377 0.744159
vt 0.691364 0.741714
vt 0.712225 0.729990
vt 0.691377 0.744159
vt 0.763019 0.709606
vt 0.691364 0.741714
vt 0.763019 0.709606
vn 0.6266 0.7794 -0.0000
vn -0.6266 -0.7793 0.0000
vn 0.6876 -0.5528 0.4707
vn -0.0002 0.0001 1.0000
vn -0.7200 0.5789 -0.3827
vn 0.7412 -0.5959 0.3091
vn 0.6266 0.7793 -0.0000
vn -0.6266 -0.7794 0.0000
usemtl Default_OBJ
s off
f 1/1/1 3/2/1 4/3/1
f 7/4/2 5/5/2 8/6/2
f 6/7/3 1/1/3 4/3/3
f 3/2/4 6/7/4 4/3/4
f 8/6/5 3/2/5 2/8/5
f 1/1/6 8/6/6 2/8/6
f 1/1/7 2/8/7 3/2/7
f 7/4/8 6/7/8 5/5/8
f 6/7/3 7/4/3 1/1/3
f 3/2/4 5/5/4 6/7/4
f 8/6/5 5/5/5 3/2/5
f 1/1/6 7/4/6 8/6/6
