# Blender v2.93.1 OBJ File: 'extrude-destructive.blend'
# www.blender.org
mtllib board-06a.mtl
o board-06a_lowPoly.001_Cube.042
v -0.247691 -0.678318 -0.288627
v -0.088416 -0.806378 -0.203974
v -0.185581 -0.728256 -0.815238
v -0.715019 -1.585717 -0.203974
v -0.812184 -1.507595 -0.815238
v -0.874294 -1.457657 -0.288627
vt 0.705578 0.505685
vt 0.699746 0.495930
vt 0.746478 0.490365
vt 0.705578 0.505685
vt 0.746478 0.490365
vt 0.699746 0.495930
vn 0.6266 0.7793 -0.0000
vn -0.6266 -0.7793 0.0000
vn -0.2982 0.2398 0.9239
vn -0.7706 0.6195 -0.1496
vn 0.7636 -0.6140 -0.1998
usemtl Default_OBJ
s off
f 1/1/1 2/2/1 3/3/1
f 6/4/2 5/5/2 4/6/2
f 6/4/3 2/2/3 1/1/3
f 5/5/4 1/1/4 3/3/4
f 2/2/5 5/5/5 3/3/5
f 6/4/3 4/6/3 2/2/3
f 5/5/4 6/4/4 1/1/4
f 2/2/5 4/6/5 5/5/5
