# Blender v2.93.1 OBJ File: 'extrude-destructive.blend'
# www.blender.org
mtllib board-13a.mtl
o board-13a_lowPoly.001_Cube.049
v -3.150906 1.655926 -1.795276
v -2.963609 1.505336 -0.231842
v -3.038579 1.565614 0.000398
v -3.151100 1.656082 0.000476
v -3.665180 0.786273 0.000400
v -3.777701 0.876742 0.000478
v -3.777507 0.876586 -1.795274
v -3.590210 0.725996 -0.231840
vt 0.712969 0.814037
vt 0.691377 0.836696
vt 0.691450 0.823021
vt 0.859844 0.831183
vt 0.712969 0.814037
vt 0.691450 0.823021
vt 0.691377 0.836696
vt 0.859844 0.831183
vn 0.6266 0.7793 -0.0000
vn -0.6266 -0.7793 0.0000
vn -0.7793 0.6266 -0.0001
vn 0.0004 -0.0003 1.0000
vn 0.7200 -0.5789 0.3827
vn 0.7703 -0.6193 -0.1519
usemtl Default_OBJ
s off
f 2/1/1 4/2/1 3/3/1
f 2/1/1 1/4/1 4/2/1
f 8/5/2 5/6/2 6/7/2
f 8/5/2 6/7/2 7/8/2
f 7/8/3 4/2/3 1/4/3
f 4/2/4 5/6/4 3/3/4
f 5/6/5 2/1/5 3/3/5
f 2/1/6 7/8/6 1/4/6
f 7/8/3 6/7/3 4/2/3
f 4/2/4 6/7/4 5/6/4
f 5/6/5 8/5/5 2/1/5
f 2/1/6 8/5/6 7/8/6
