# Blender v2.93.1 OBJ File: 'extrude-destructive.blend'
# www.blender.org
mtllib board-18a.mtl
o board-18a_lowPoly.001_Cube.054
v -1.028427 -0.050590 -0.203974
v -1.094400 0.002454 0.000398
v -1.283593 0.154568 -0.231842
v -1.208622 0.094291 0.000398
v -1.910197 -0.624770 -0.231840
v -1.835226 -0.685047 0.000400
v -1.655031 -0.829928 -0.203972
v -1.721004 -0.776884 0.000400
vt 0.690687 0.616963
vt 0.701752 0.596745
vt 0.707904 0.623900
vt 0.690580 0.601984
vt 0.690687 0.616963
vt 0.707904 0.623900
vt 0.701752 0.596745
vt 0.690580 0.601984
vn 0.6266 0.7793 -0.0000
vn -0.6266 -0.7793 0.0000
vn 0.0661 -0.0531 -0.9964
vn -0.7200 0.5789 0.3827
vn 0.0000 0.0000 1.0000
vn 0.7200 -0.5789 0.3827
usemtl Default_OBJ
s off
f 4/1/1 1/2/1 3/3/1
f 4/1/1 2/4/1 1/2/1
f 6/5/2 5/6/2 7/7/2
f 6/5/2 7/7/2 8/8/2
f 7/7/3 3/3/3 1/2/3
f 3/3/4 6/5/4 4/1/4
f 6/5/5 2/4/5 4/1/5
f 2/4/6 7/7/6 1/2/6
f 7/7/3 5/6/3 3/3/3
f 3/3/4 5/6/4 6/5/4
f 6/5/5 8/8/5 2/4/5
f 2/4/6 8/8/6 7/7/6
