# Blender v2.93.1 OBJ File: 'extrude-destructive.blend'
# www.blender.org
mtllib board-19a.mtl
o board-19a_lowPoly.001_Cube.055
v -1.912488 0.660213 -0.231842
v -1.645579 0.445613 -0.231842
v -1.837518 0.599936 0.000398
v -1.720549 0.505890 0.000398
v -2.272183 -0.333724 -0.231841
v -2.347154 -0.273447 0.000399
v -2.539093 -0.119124 -0.231841
v -2.464123 -0.179401 0.000399
vt 0.691003 0.669976
vt 0.711159 0.689854
vt 0.691074 0.682181
vt 0.709790 0.661713
vt 0.691003 0.669976
vt 0.691074 0.682181
vt 0.711159 0.689854
vt 0.709790 0.661713
vn 0.6266 0.7793 -0.0000
vn -0.6266 -0.7793 0.0000
vn -0.7200 0.5789 0.3827
vn 0.7200 -0.5789 0.3827
vn 0.0000 0.0000 1.0000
vn -0.0000 -0.0000 -1.0000
usemtl Default_OBJ
s off
f 4/1/1 1/2/1 3/3/1
f 4/1/1 2/4/1 1/2/1
f 6/5/2 8/6/2 7/7/2
f 6/5/2 7/7/2 5/8/2
f 1/2/3 8/6/3 3/3/3
f 4/1/4 5/8/4 2/4/4
f 8/6/5 4/1/5 3/3/5
f 5/8/6 1/2/6 2/4/6
f 1/2/3 7/7/3 8/6/3
f 4/1/4 6/5/4 5/8/4
f 8/6/5 6/5/5 4/1/5
f 5/8/6 7/7/6 1/2/6
