# Blender v2.93.1 OBJ File: 'extrude-destructive.blend'
# www.blender.org
mtllib board-02a.mtl
o board-02a_lowPoly.001_Cube.038
v 0.043074 -0.912099 -1.841748
v -0.552913 -0.432913 -1.455397
v -0.164568 -0.745151 -0.842200
v -0.583530 -1.691436 -1.841749
v -1.179517 -1.212250 -1.455398
v -0.791172 -1.524489 -0.842201
vt 0.815991 0.507149
vt 0.762717 0.463857
vt 0.849557 0.440710
vt 0.815991 0.507149
vt 0.849557 0.440710
vt 0.762717 0.463857
vn 0.6266 0.7793 0.0000
vn -0.6266 -0.7793 -0.0000
vn -0.6048 0.4863 0.6307
vn 0.7530 -0.6055 0.2576
vn -0.3514 0.2826 -0.8926
usemtl Default_OBJ
s off
f 2/1/1 3/2/1 1/3/1
f 5/4/2 4/5/2 6/6/2
f 5/4/3 3/2/3 2/1/3
f 6/6/4 1/3/4 3/2/4
f 4/5/5 2/1/5 1/3/5
f 5/4/3 6/6/3 3/2/3
f 6/6/4 4/5/4 1/3/4
f 4/5/5 5/4/5 2/1/5
