# Blender v2.93.1 OBJ File: 'extrude-destructive.blend'
# www.blender.org
mtllib board-01a.mtl
o board-01a_lowPoly.001_Cube.037
v 0.043028 -0.912062 0.000393
v 0.490390 -1.271750 0.000393
v 0.043074 -0.912099 -1.841748
v 0.490436 -1.271787 -1.841748
v -0.164568 -0.745151 -0.842200
v -0.136213 -2.051088 0.000393
v -0.136167 -2.051125 -1.841748
v -0.583575 -1.691400 0.000393
v -0.791171 -1.524489 -0.842200
v -0.583529 -1.691437 -1.841748
vt 0.849557 0.440710
vt 0.689513 0.390843
vt 0.849558 0.390838
vt 0.762717 0.463857
vt 0.689513 0.440714
vt 0.849557 0.440710
vt 0.849558 0.390838
vt 0.689513 0.390843
vt 0.762717 0.463857
vt 0.689513 0.440714
vn 0.6266 0.7793 0.0000
vn -0.6266 -0.7793 -0.0000
vn -0.7530 0.6055 -0.2576
vn -0.7431 0.5975 0.3014
vn 0.0000 0.0000 -1.0000
vn 0.0000 -0.0000 1.0000
vn 0.7793 -0.6266 0.0000
usemtl Default_OBJ
s off
f 3/1/1 2/2/1 4/3/1
f 5/4/1 1/5/1 3/1/1
f 3/1/1 1/5/1 2/2/1
f 10/6/2 7/7/2 6/8/2
f 9/9/2 10/6/2 8/10/2
f 10/6/2 6/8/2 8/10/2
f 10/6/3 5/4/3 3/1/3
f 9/9/4 1/5/4 5/4/4
f 4/3/5 10/6/5 3/1/5
f 8/10/6 2/2/6 1/5/6
f 6/8/7 4/3/7 2/2/7
f 10/6/3 9/9/3 5/4/3
f 9/9/4 8/10/4 1/5/4
f 4/3/5 7/7/5 10/6/5
f 8/10/6 6/8/6 2/2/6
f 6/8/7 7/7/7 4/3/7
