# Blender v2.93.1 OBJ File: 'extrude-destructive.blend'
# www.blender.org
mtllib board-03b.mtl
o board-03a_lowPoly.001_Cube.039
v 0.043074 -0.912099 1.841748
v -0.552913 -0.432913 1.455397
v -1.199311 0.086804 1.841748
v -0.583530 -1.691437 1.841747
v -1.179517 -1.212251 1.455396
v -1.825915 -0.692534 1.841747
vt 0.815991 0.507149
vt 0.849556 0.579209
vt 0.849557 0.440710
vt 0.815991 0.507149
vt 0.849557 0.440710
vt 0.849556 0.579209
vn 0.6266 0.7793 0.0000
vn -0.6266 -0.7793 -0.0000
vn -0.3291 0.2646 -0.9065
vn -0.0000 -0.0000 1.0000
vn 0.3514 -0.2826 -0.8926
usemtl Default_OBJ
s off
f 2/1/1 3/2/1 1/3/1
f 5/4/2 4/5/2 6/6/2
f 6/6/3 3/2/3 2/1/3
f 4/5/4 1/3/4 3/2/4
f 5/4/5 2/1/5 1/3/5
f 6/6/3 2/1/3 5/4/3
f 4/5/4 3/2/4 6/6/4
f 5/4/5 1/3/5 4/5/5
