# Blender v2.93.1 OBJ File: 'skeeball-convex-shapes.blend'
# www.blender.org
mtllib lane-11.mtl
o lane-11_lowPoly_Cube.016
v -3.541029 -2.080620 -2.448041
v 0.490436 -0.849426 -1.841748
v 0.043074 -0.429678 -1.841748
v 0.043074 -0.429678 -2.479627
v 0.490436 -0.849426 -2.479627
v -3.541029 -2.080620 -1.841750
vt 0.145040 0.528872
vt 0.116100 0.499608
vt 0.145757 0.500350
vt 0.115387 0.528126
vt 0.078218 0.865049
vt 0.054229 0.812486
vt 0.059952 0.805756
vt 0.000000 0.000000
vt 0.900221 0.710722
vn 0.6842 0.7293 0.0000
vn -0.0057 -0.0066 -1.0000
vn -0.0017 -0.0201 -0.9998
vn -0.0121 -0.0051 -0.9999
vn -0.0000 -0.0000 1.0000
vn -0.0017 0.0010 1.0000
vn -0.4184 0.9083 0.0000
vn 0.2903 -0.9569 -0.0006
vn 0.2918 -0.9565 0.0002
vn 0.2881 -0.9576 0.0047
vn -0.4303 0.9027 0.0059
vn 0.2921 -0.9564 -0.0000
usemtl Default_OBJ.005
s off
f 2/1/1 4/2/1 3/3/1
f 2/1/1 5/4/1 4/2/1
f 1/5/2 4/6/3 5/7/4
f 3/3/5 6/8/5 2/9/6
f 3/3/7 1/5/7 6/8/7
f 2/9/8 1/5/9 5/7/10
f 3/3/7 4/6/11 1/5/7
f 2/9/8 6/8/12 1/5/9
