# Blender v2.93.1 OBJ File: 'skeeball-convex-shapes.blend'
# www.blender.org
mtllib lane-13.mtl
o lane-13_lowPoly_Cube.013
v -3.541029 -2.080621 2.447809
v 1.364963 -1.034881 1.839521
v 1.364963 -1.034881 2.447809
v 1.003215 -2.080621 2.447809
v 1.003215 -2.080620 1.839342
v 0.490436 -0.849426 1.842651
v 0.490436 -0.849426 2.447343
v -3.541029 -2.080620 1.842650
vt 0.924581 0.716515
vt 0.980977 0.700629
vt 0.942956 0.760140
vt 0.261899 0.531374
vt 0.288963 0.570217
vt 0.261062 0.572387
vt 0.018862 0.586657
vt 0.033408 0.582251
vt 0.035398 0.594375
vt 0.000000 0.000000
vt 0.289634 0.529214
vt 0.015980 0.648279
vn -0.0033 0.0013 -1.0000
vn -0.0049 0.0012 -1.0000
vn -0.0016 -0.0013 -1.0000
vn 0.2074 0.9782 0.0000
vn -0.0005 0.0002 1.0000
vn -0.0007 0.0024 -1.0000
vn -0.0033 0.0006 -1.0000
vn -0.0014 0.0009 -1.0000
vn 0.0000 0.0004 1.0000
vn 0.0000 -1.0000 -0.0000
vn 0.0015 -1.0000 0.0007
vn 0.9451 -0.3269 0.0000
vn 0.9453 -0.3263 -0.0012
vn -0.0001 -1.0000 0.0016
vn -0.2921 0.9564 0.0000
vn -0.2930 0.9561 0.0030
usemtl Default_OBJ.005
s off
f 2/1/1 5/2/2 6/3/3
f 6/4/4 3/5/4 2/6/4
f 4/7/5 3/8/5 7/9/5
f 8/10/6 6/3/7 5/2/8
f 6/4/4 7/11/4 3/5/4
f 1/12/9 4/7/9 7/9/9
f 1/12/10 5/2/11 4/7/10
f 4/7/12 2/1/12 3/5/12
f 4/7/12 5/2/13 2/1/12
f 8/10/10 5/2/14 1/12/10
f 8/10/15 7/9/15 6/3/16
f 8/10/15 1/12/15 7/9/15
