# Blender v2.93.1 OBJ File: 'skeeball-convex-shapes.blend'
# www.blender.org
mtllib lane-08.mtl
o lane-08_lowPoly_Cube.010
v -0.113577 -1.401312 1.842651
v 0.043074 -1.206477 -1.841748
v 0.490436 -1.566166 -1.841748
v 0.490436 -1.566166 1.842651
v 1.003215 -2.080620 -1.839658
v 1.003215 -2.080620 1.839342
v 0.826150 -2.257108 1.839342
v 0.826150 -2.257108 -1.839658
v -0.113577 -1.401311 -1.841748
v 0.043074 -1.206477 1.842651
vt 0.000000 0.000000
vt 0.000000 0.000000
vt 0.000000 0.000000
vt 0.000000 0.000000
vt 0.000000 0.000000
vt 0.000000 0.000000
vt 0.000000 0.000000
vt 0.000000 0.000000
vt 0.000000 0.000000
vt 0.000000 0.000000
vn 0.7060 -0.7083 0.0000
vn -0.6733 -0.7394 -0.0000
vn -0.0010 -0.0035 -1.0000
vn 0.0000 0.0000 -1.0000
vn 0.7083 0.7060 0.0000
vn -0.7793 0.6266 0.0000
vn 0.0020 -0.0020 -1.0000
vn -0.0015 -0.0055 1.0000
vn 0.6266 0.7793 0.0000
vn 0.0032 -0.0032 1.0000
vn 0.0000 0.0000 1.0000
usemtl Default_OBJ.005
s off
f 7/1/1 5/2/1 6/3/1
f 7/1/2 1/4/2 9/5/2
f 7/1/2 9/5/2 8/6/2
f 8/6/3 9/5/3 3/7/3
f 3/7/4 9/5/4 2/8/4
f 6/3/5 5/2/5 4/9/5
f 3/7/5 4/9/5 5/2/5
f 7/1/1 8/6/1 5/2/1
f 9/5/6 10/10/6 2/8/6
f 10/10/6 9/5/6 1/4/6
f 5/2/7 8/6/7 3/7/7
f 7/1/8 4/9/8 1/4/8
f 3/7/9 2/8/9 4/9/9
f 6/3/10 4/9/10 7/1/10
f 10/10/9 4/9/9 2/8/9
f 10/10/11 1/4/11 4/9/11
