# Blender v2.93.1 OBJ File: 'skeeball-convex-shapes.blend'
# www.blender.org
mtllib lane-14.mtl
o lane-14_lowPoly_Cube.014
v -3.541029 -2.080621 2.447809
v 0.490436 -0.849426 1.842651
v 0.043074 -0.429678 1.842651
v 0.043074 -0.429678 2.447343
v 0.490436 -0.849426 2.447343
v -3.541029 -2.080620 1.842650
vt 0.263612 0.503238
vt 0.289634 0.529214
vt 0.261899 0.531374
vt 0.015980 0.648279
vt 0.035398 0.594375
vt 0.040847 0.600703
vt 0.942956 0.760140
vt 0.000000 0.000000
vt 0.291348 0.501076
vn 0.6842 0.7293 0.0000
vn 0.0001 0.0001 1.0000
vn 0.0000 0.0000 -1.0000
vn -0.0026 0.0016 -1.0000
vn -0.4184 0.9083 0.0000
vn 0.2921 -0.9564 0.0000
vn 0.2892 -0.9573 0.0009
usemtl Default_OBJ.005
s off
f 3/1/1 5/2/1 2/3/1
f 1/4/2 5/5/2 4/6/2
f 3/1/3 2/7/4 6/8/3
f 3/1/1 4/9/1 5/2/1
f 4/9/5 6/8/5 1/4/5
f 5/5/6 6/8/6 2/7/7
f 4/9/5 3/1/5 6/8/5
f 5/5/6 1/4/6 6/8/6
