# Blender v2.93.1 OBJ File: 'skeeball-convex-shapes.blend'
# www.blender.org
mtllib lane-09.mtl
o lane-09_lowPoly_Cube.011
v -0.858213 0.511045 -1.841748
v -2.809808 2.080168 -1.841748
v -3.150906 1.361548 -1.841748
v -3.541029 -2.080620 -2.448041
v 0.043074 -0.429678 -1.841748
v -0.858213 0.511045 -2.479627
v -2.809808 2.080168 -2.479627
v 0.043074 -0.429678 -2.479627
v -3.150906 1.655926 -2.479701
v -3.541029 -2.080620 -1.841750
vt 0.117611 0.439033
vt 0.150174 0.323324
vt 0.147272 0.439773
vt 0.145757 0.500350
vt 0.078218 0.865049
vt 0.041476 0.826154
vt 0.054229 0.812486
vt 0.030611 0.863988
vt 0.020342 0.855594
vt 0.121139 0.297271
vt 0.150805 0.298010
vt 0.120512 0.322585
vt 0.116100 0.499608
vt 0.000000 0.000000
vn 0.6266 0.7793 0.0000
vn 0.7221 0.6918 0.0000
vn -0.0061 -0.0059 -1.0000
vn 0.0124 -0.0098 -0.9999
vn -0.8883 0.4122 0.2026
vn -0.8896 0.4102 0.2011
vn -0.8527 0.5090 0.1174
vn -0.0053 -0.0067 -1.0000
vn -0.0056 -0.0064 -1.0000
vn -0.7869 0.6171 -0.0006
vn -0.7786 0.6274 0.0130
vn -0.9948 0.0934 0.0408
vn -0.9934 0.1041 0.0480
vn -0.9982 0.0331 -0.0506
vn -0.0000 -0.0000 1.0000
vn 0.1213 -0.0072 0.9926
vn -0.9999 -0.0086 -0.0089
vn -0.9936 0.1126 0.0000
vn 0.4184 -0.9083 -0.0000
usemtl Default_OBJ.005
s off
f 6/1/1 2/2/1 1/3/1
f 5/4/2 6/1/2 1/3/2
f 4/5/3 6/6/3 8/7/3
f 4/5/4 9/8/4 7/9/4
f 2/2/5 9/10/6 3/11/7
f 6/1/1 7/12/1 2/2/1
f 5/4/2 8/13/2 6/1/2
f 4/5/8 7/9/9 6/6/8
f 2/2/10 7/12/7 9/10/11
f 9/10/12 4/5/13 3/11/14
f 5/4/15 1/3/15 10/14/15
f 2/2/15 10/14/15 1/3/15
f 3/11/16 10/14/15 2/2/15
f 3/11/17 4/5/18 10/14/18
f 5/4/19 4/5/19 8/7/19
f 5/4/19 10/14/19 4/5/19
