# Blender v2.93.1 OBJ File: 'extrude-destructive.blend'
# www.blender.org
mtllib rim-outer-2a.mtl
o rim-outer-2a_lowPoly.001_Cube.059
v -0.211816 -0.008672 -1.455397
v -0.211816 -0.008672 -1.408811
v 0.155516 -0.304015 -0.815238
v 0.176530 -0.320910 -0.842201
v -0.838416 -0.788013 -1.455402
v -0.838416 -0.788013 -1.408816
v -0.450069 -1.100251 -0.842206
v -0.471083 -1.083356 -0.815243
vt 0.178746 0.251824
vt 0.193458 0.253080
vt 0.176922 0.253729
vt 0.193944 0.251087
vt 0.178746 0.251824
vt 0.176922 0.253729
vt 0.193458 0.253080
vt 0.193944 0.251087
vn 0.6266 0.7793 0.0000
vn -0.6266 -0.7793 0.0000
vn -0.7793 0.6266 0.0000
vn 0.5511 -0.4431 0.7071
vn 0.6048 -0.4863 -0.6307
vn -0.6103 0.4907 0.6219
usemtl Default_OBJ
s off
f 2/1/1 4/2/1 1/3/1
f 2/1/1 3/4/1 4/2/1
f 6/5/2 5/6/2 7/7/2
f 6/5/2 7/7/2 8/8/2
f 1/3/3 6/5/3 2/1/3
f 3/4/4 7/7/4 4/2/4
f 7/7/5 1/3/5 4/2/5
f 6/5/6 3/4/6 2/1/6
f 1/3/3 5/6/3 6/5/3
f 3/4/4 8/8/4 7/7/4
f 7/7/5 5/6/5 1/3/5
f 6/5/6 8/8/6 3/4/6
