# Blender v2.93.1 OBJ File: 'extrude-destructive.blend'
# www.blender.org
mtllib rim-inner-2a.mtl
o rim-inner-2a_lowPoly.001_Cube.063
v -1.149976 0.745629 -1.191214
v -0.493312 0.217657 -0.842201
v -1.149977 0.745629 -1.153083
v -0.514325 0.234552 -0.815238
v -1.119914 -0.561683 -0.842208
v -1.140927 -0.544788 -0.815245
v -1.776578 -0.033711 -1.191221
v -1.776579 -0.033711 -1.153090
vt 0.231323 0.177064
vt 0.233592 0.148078
vt 0.234627 0.177700
vt 0.229538 0.150563
vt 0.231323 0.177064
vt 0.234627 0.177700
vt 0.233592 0.148078
vt 0.229538 0.150563
vn 0.6266 0.7793 0.0000
vn -0.6266 -0.7793 -0.0000
vn 0.5511 -0.4431 0.7071
vn -0.2982 0.2398 0.9239
vn 0.2982 -0.2398 -0.9239
vn -0.7793 0.6266 -0.0000
usemtl Default_OBJ
s off
f 3/1/1 2/2/1 1/3/1
f 3/1/1 4/4/1 2/2/1
f 8/5/2 7/6/2 5/7/2
f 8/5/2 5/7/2 6/8/2
f 6/8/3 2/2/3 4/4/3
f 3/1/4 6/8/4 4/4/4
f 2/2/5 7/6/5 1/3/5
f 7/6/6 3/1/6 1/3/6
f 6/8/3 5/7/3 2/2/3
f 3/1/4 8/5/4 6/8/4
f 2/2/5 5/7/5 7/6/5
f 7/6/6 8/5/6 3/1/6
