# Blender v2.93.1 OBJ File: ''
# www.blender.org
o Cube.001
v 0.487540 -0.117948 -0.731647
v 0.487540 0.117948 -0.731647
v -0.058662 0.117948 0.000000
v -0.058662 -0.117948 -0.000000
v 0.487540 0.117948 0.731647
v 0.487540 -0.117948 0.731647
v -1.521956 0.117948 0.000000
v -1.521956 -0.117948 -0.000000
vt 0.831483 0.932611
vt 1.000000 0.976150
vt 0.831483 0.976150
vt 0.000000 0.933163
vt 0.168513 0.976700
vt 0.000000 0.976700
vt 0.168513 0.933162
vt 0.499932 0.983116
vt 0.499932 0.939578
vt 0.500607 0.258744
vt 0.493164 0.896323
vt 0.184596 0.017034
vt 0.822175 0.024477
vt 0.501256 0.259556
vt 0.825493 0.020080
vt 0.497943 0.905556
vt 0.179492 0.016767
vt 1.000000 0.932612
vn 0.8013 -0.0000 0.5982
vn 0.8013 0.0000 -0.5982
vn -0.3421 -0.0000 0.9397
vn -0.3421 0.0000 -0.9397
vn 0.0000 1.0000 0.0000
vn 0.0000 -1.0000 -0.0000
s 1
f 2/1/1 4/2/1 1/3/1
f 3/4/2 6/5/2 4/6/2
f 5/7/3 8/8/3 6/5/3
f 1/3/4 7/9/4 2/1/4
f 3/10/5 7/11/5 5/12/5
f 2/13/5 7/11/5 3/10/5
f 4/14/6 6/15/6 8/16/6
f 1/17/6 4/14/6 8/16/6
f 2/1/1 3/18/1 4/2/1
f 3/4/2 5/7/2 6/5/2
f 5/7/3 7/9/3 8/8/3
f 1/3/4 8/8/4 7/9/4
