# Blender v2.93.1 OBJ File: ''
# www.blender.org
mtllib model-hood.mtl
o Cube_Cube.001
v 0.541507 3.304478 0.000001
v 0.541507 3.423249 0.000001
v 0.541507 3.423249 2.316330
v 0.541507 3.304477 2.316331
v 0.541507 3.423249 -2.316329
v 0.541507 3.304478 -2.316330
v -3.523675 3.304477 2.448000
v -3.523675 3.423249 2.447999
v -3.523675 3.423249 2.316331
v -3.523675 3.304477 2.316333
v -3.523675 3.423249 -2.316330
v -3.523675 3.423249 -2.447999
v -3.523675 3.304478 -2.447999
v -3.523675 3.304478 -2.316332
v 0.341031 3.304477 2.316331
v 0.341031 3.304478 0.000001
v 0.341031 3.304478 -2.316330
v 0.341031 3.423249 0.000001
v 0.341032 3.423249 2.316330
v 0.341032 3.423249 -2.316329
v 0.341032 3.474154 2.315806
v -3.523675 3.474154 2.315809
v 0.341032 3.474154 -2.315805
v -3.523675 3.474154 -2.315808
v 0.541507 3.474154 2.315806
v 0.541507 3.474154 -2.315805
v -3.523675 3.304487 2.497699
v 0.341031 3.304477 2.447999
v 0.341031 3.304487 2.497699
v 0.341031 3.304478 -2.447999
v -3.523675 3.304487 -2.497699
v 0.341031 3.304487 -2.497698
v 0.541507 3.304477 2.447999
v 0.541507 3.304487 2.497699
v 0.541507 3.304487 -2.497698
v 0.541507 3.304478 -2.447999
v -3.523675 3.474154 2.497699
v -3.523675 3.474154 -2.497699
v 0.341032 3.474154 2.497698
v 0.541507 3.474154 2.497698
v 0.341032 3.474154 -2.497697
v 0.541507 3.474154 -2.497697
v 0.805052 3.448596 2.447999
v 0.685072 3.328617 2.447999
v 0.805052 3.448596 -2.447999
v 0.685072 3.328618 -2.447999
v 0.805052 3.448596 2.315806
v 0.805052 3.448596 -2.315805
v 0.769056 3.412600 2.316330
v 0.769056 3.412601 -2.316329
v 0.685072 3.328617 2.316331
v 0.685072 3.328618 -2.316330
v 1.516977 2.505579 2.316331
v 1.626707 2.551029 2.316330
v 1.516977 2.505579 -2.316330
v 1.626707 2.551030 -2.316329
v 1.673738 2.570511 2.315808
v 1.673738 2.570512 -2.315807
v 1.673738 2.570511 2.447996
v 1.673738 2.570512 -2.447995
v 1.516977 2.505579 2.447999
v 1.516977 2.505579 -2.447999
v 2.297032 1.048379 2.447998
v 2.127356 1.048379 2.448001
v 2.297032 1.048379 -2.447998
v 2.127356 1.048379 -2.448001
v 2.297032 1.048379 2.315809
v 2.297032 1.048379 -2.315809
v 2.246127 1.048378 2.316333
v 2.246127 1.048378 -2.316333
v 2.127356 1.048379 2.316334
v 2.127356 1.048379 -2.316334
v 2.127351 -1.046885 2.316339
v 2.246122 -1.046885 2.316338
v 2.127351 -1.046885 -2.316339
v 2.246122 -1.046885 -2.316338
v 2.297028 -1.046885 2.315814
v 2.297028 -1.046885 -2.315814
v 2.297028 -1.046885 2.448003
v 2.297028 -1.046885 -2.448003
v 2.127222 -1.046885 2.448006
v 2.127222 -1.046885 -2.448006
v 2.246122 -1.046885 2.448005
v 2.246122 -1.046885 -2.448005
vn 1.0000 0.0000 0.0000
vn -1.0000 -0.0000 0.0000
vn 0.0000 -1.0000 -0.0000
vn 0.0000 1.0000 0.0000
vn -0.0000 -0.0069 -1.0000
vn -0.0000 -0.0103 -0.9999
vn -0.0000 -0.0069 1.0000
vn -0.0000 -0.0103 0.9999
vn -0.0000 -0.0051 1.0000
vn 0.0001 -0.0022 -1.0000
vn -0.0004 -0.0109 -0.9999
vn 0.0001 -0.0023 1.0000
vn 0.0000 -1.0000 0.0001
vn 0.0000 -1.0000 0.0002
vn 0.0000 -1.0000 -0.0001
vn 0.0000 -1.0000 -0.0002
vn 0.0000 0.0000 1.0000
vn 0.0000 0.0000 -1.0000
vn 0.2357 -0.0977 0.9669
vn 0.2357 -0.0976 0.9669
vn 0.2357 -0.0977 -0.9669
vn 0.2357 -0.0976 -0.9669
vn 0.0965 0.9953 0.0000
vn 0.1658 -0.9862 0.0002
vn 0.1658 -0.9862 0.0001
vn 0.1658 -0.9862 0.0000
vn 0.1658 -0.9862 -0.0001
vn 0.1658 -0.9862 -0.0002
vn -0.0018 -0.0001 -1.0000
vn -0.0017 -0.0112 -0.9999
vn -0.0004 -0.0109 0.9999
vn -0.0018 -0.0001 1.0000
vn -0.0017 -0.0112 0.9999
vn -0.0010 0.0005 -1.0000
vn -0.0010 0.0005 1.0000
vn -0.0078 -0.0073 -0.9999
vn -0.0078 -0.0073 0.9999
vn 0.7109 0.7033 0.0000
vn 0.9254 0.3789 0.0000
vn -0.0007 0.0008 -1.0000
vn -0.0099 -0.0037 -0.9999
vn -0.0007 0.0008 1.0000
vn -0.0099 -0.0038 0.9999
vn -0.0052 -0.0000 -1.0000
vn -0.0052 -0.0000 1.0000
vn -0.0103 -0.0000 -0.9999
vn -0.0103 -0.0000 0.9999
vn 0.0000 0.9864 0.1642
vn 0.0000 0.9967 -0.0815
vn -0.0000 -0.0051 -1.0000
vn -0.7033 -0.7109 0.0000
vn -0.9224 -0.3863 0.0000
vn -1.0000 0.0001 -0.0009
vn -1.0000 0.0000 -0.0005
vn -1.0000 0.0001 0.0009
vn -1.0000 0.0000 0.0005
vn -1.0000 0.0000 0.0006
vn -1.0000 0.0000 -0.0006
usemtl Default_OBJ
s 1
f 1//1 3//1 4//1
f 5//1 1//1 6//1
f 8//2 10//2 7//2
f 12//2 14//2 11//2
f 16//3 4//3 15//3
f 16//3 6//3 1//3
f 2//4 19//4 3//4
f 2//4 20//4 18//4
f 19//5 22//6 21//6
f 20//7 24//8 11//9
f 3//10 21//6 25//11
f 5//12 23//8 20//7
f 7//13 29//14 27//14
f 13//15 32//16 30//15
f 34//14 28//13 33//13
f 35//16 30//15 32//16
f 22//2 8//2 37//2
f 12//2 24//2 38//2
f 8//2 27//2 37//2
f 12//2 31//2 13//2
f 39//17 34//17 40//17
f 35//18 41//18 42//18
f 27//17 39//17 37//17
f 31//18 41//18 32//18
f 21//4 37//4 39//4
f 23//4 38//4 24//4
f 25//4 39//4 40//4
f 26//4 41//4 23//4
f 40//19 44//20 43//20
f 42//21 46//21 35//22
f 25//23 43//23 47//23
f 26//23 45//23 42//23
f 34//24 33//25 44//26
f 46//26 36//27 35//28
f 49//29 25//11 47//30
f 26//31 50//32 48//33
f 51//18 3//10 49//29
f 5//12 52//17 50//32
f 53//18 49//29 54//34
f 50//32 55//17 56//35
f 54//34 47//30 57//36
f 48//33 56//35 58//37
f 47//38 59//38 57//38
f 48//38 60//38 45//38
f 43//17 61//17 59//17
f 45//18 62//18 46//18
f 59//17 64//17 63//17
f 60//18 66//18 62//18
f 57//39 63//39 67//39
f 58//39 65//39 60//39
f 69//40 57//36 67//41
f 58//37 70//42 68//43
f 71//18 54//34 69//40
f 56//35 72//17 70//42
f 73//18 69//40 74//44
f 70//42 75//17 76//45
f 69//40 77//46 74//44
f 70//42 78//47 68//43
f 77//1 63//1 79//1
f 65//1 78//1 80//1
f 79//17 64//17 81//17
f 66//18 80//18 82//18
f 73//3 83//3 81//3
f 84//3 75//3 82//3
f 79//3 74//3 77//3
f 76//3 80//3 78//3
f 79//48 81//48 83//48
f 84//49 82//49 80//49
f 16//2 19//2 18//2
f 20//2 16//2 18//2
f 9//50 15//18 10//18
f 11//9 17//17 20//7
f 10//3 28//13 7//13
f 14//3 30//15 17//3
f 28//13 4//3 33//13
f 30//15 6//3 17//3
f 4//26 44//26 33//25
f 6//26 46//26 52//26
f 53//51 44//51 51//51
f 55//51 46//51 62//51
f 71//52 61//52 53//52
f 72//52 62//52 66//52
f 73//53 64//54 71//54
f 75//55 66//56 82//57
f 1//1 2//1 3//1
f 5//1 2//1 1//1
f 8//2 9//2 10//2
f 12//2 13//2 14//2
f 16//3 1//3 4//3
f 16//3 17//3 6//3
f 2//4 18//4 19//4
f 2//4 5//4 20//4
f 19//5 9//50 22//6
f 20//7 23//8 24//8
f 3//10 19//5 21//6
f 5//12 26//31 23//8
f 7//13 28//13 29//14
f 13//15 31//16 32//16
f 34//14 29//14 28//13
f 35//16 36//15 30//15
f 22//2 9//2 8//2
f 12//2 11//2 24//2
f 8//2 7//2 27//2
f 12//2 38//2 31//2
f 39//17 29//17 34//17
f 35//18 32//18 41//18
f 27//17 29//17 39//17
f 31//18 38//18 41//18
f 21//4 22//4 37//4
f 23//4 41//4 38//4
f 25//4 21//4 39//4
f 26//4 42//4 41//4
f 40//19 34//20 44//20
f 42//21 45//22 46//21
f 25//23 40//23 43//23
f 26//23 48//23 45//23
f 49//29 3//10 25//11
f 26//31 5//12 50//32
f 51//18 4//18 3//10
f 5//12 6//17 52//17
f 53//18 51//18 49//29
f 50//32 52//17 55//17
f 54//34 49//29 47//30
f 48//33 50//32 56//35
f 47//38 43//38 59//38
f 48//38 58//38 60//38
f 43//17 44//17 61//17
f 45//18 60//18 62//18
f 59//17 61//17 64//17
f 60//18 65//18 66//18
f 57//39 59//39 63//39
f 58//39 68//39 65//39
f 69//40 54//34 57//36
f 58//37 56//35 70//42
f 71//18 53//18 54//34
f 56//35 55//17 72//17
f 73//18 71//18 69//40
f 70//42 72//17 75//17
f 69//40 67//41 77//46
f 70//42 76//45 78//47
f 77//1 67//1 63//1
f 65//1 68//1 78//1
f 79//17 63//17 64//17
f 66//18 65//18 80//18
f 73//3 74//3 83//3
f 84//3 76//3 75//3
f 79//3 83//3 74//3
f 76//3 84//3 80//3
f 16//2 15//2 19//2
f 20//2 17//2 16//2
f 9//50 19//5 15//18
f 11//9 14//17 17//17
f 10//3 15//3 28//13
f 14//3 13//15 30//15
f 28//13 15//3 4//3
f 30//15 36//15 6//3
f 4//26 51//26 44//26
f 6//26 36//27 46//26
f 53//51 61//51 44//51
f 55//51 52//51 46//51
f 71//52 64//52 61//52
f 72//52 55//52 62//52
f 73//53 81//58 64//54
f 75//55 72//56 66//56
