# Blender v2.93.1 OBJ File: 'uvs-lane.blend'
# www.blender.org
o lowPoly_Cube
v -3.391500 -1.833356 -1.841748
v -0.858213 0.511045 -1.841748
v -2.809808 2.080168 -1.841748
v -3.150906 1.361548 -1.841748
v -3.391542 -1.833324 1.842651
v -3.151100 1.361704 1.842651
v -2.810002 2.080323 1.842651
v -0.858254 0.511078 1.842651
v 0.043074 -1.857999 1.842651
v 0.043074 -1.857998 -1.841748
v 0.490390 -1.928403 0.000393
v 0.490436 -1.928440 -1.841748
v 0.490436 -1.928441 1.842651
v -3.151100 1.656082 0.000476
v -3.150906 1.655926 -1.795276
v -3.151100 1.656082 1.796065
v 13.770758 -1.980799 -1.839752
v 13.770758 -1.980799 1.839521
v 14.069046 -2.080620 1.839521
v 14.069046 -2.080620 -1.839752
v 13.971491 -1.671398 -1.839751
v 13.747200 -1.493785 -1.839751
v 13.747200 -1.493785 1.839520
v 13.971491 -1.671398 1.839520
v 1.744701 -2.667455 1.839522
v 1.744701 -2.667455 -1.839754
v 13.770756 -2.667455 -1.839754
v 13.770756 -2.667455 1.839522
v 14.069044 -2.667455 1.839522
v 14.069044 -2.667455 -1.839754
v 13.971491 -1.671398 -2.448039
v 13.747200 -1.493785 -2.448039
v 13.971491 -1.671398 2.447808
v 13.747200 -1.493785 2.447808
v 1.900058 -1.034881 -1.839752
v 1.900058 -1.034881 -2.448040
v 1.900058 -1.034881 1.839521
v 1.900058 -1.034881 2.447809
v 1.744701 -2.667454 -2.448041
v 13.770756 -2.667454 -2.448040
v 1.744701 -2.667455 2.447809
v 13.770756 -2.667455 2.447809
v 14.069044 -2.667454 -2.448040
v 14.069044 -2.667455 2.447809
v 2.485693 -2.080620 -2.448040
v 13.770758 -2.080620 -2.448040
v 2.485693 -2.080621 2.447809
v 13.770758 -2.080621 2.447809
v 14.069046 -2.080620 -2.448040
v 14.069046 -2.080621 2.447809
v -3.541029 -2.080620 1.839522
v -3.541029 -2.080620 -1.839754
v -3.541028 -2.667455 -1.839754
v -3.541028 -2.667455 1.839522
v -3.541029 -2.080620 -2.448041
v -3.541028 -2.667454 -2.448042
v -3.541028 -2.667455 2.447809
v -3.541029 -2.080621 2.447809
v 1.364963 -1.034881 -1.839752
v 1.364963 -1.034881 1.839521
v 1.138018 -2.667455 1.839522
v 1.138018 -2.667455 -1.839754
v 1.364963 -1.034881 -2.480000
v 1.364963 -1.034881 2.447809
v 1.138018 -2.667454 -2.448041
v 1.138018 -2.667455 2.447809
v 1.003215 -2.080620 -2.448040
v 1.003215 -2.080621 2.447809
v -3.541029 3.306424 1.839523
v -3.541029 3.306424 -1.839753
v -3.541029 3.306423 2.447809
v -3.541029 3.306424 -2.448040
v 1.003215 -2.080620 -1.839658
v 1.003215 -2.080620 1.839342
v -3.151184 3.306424 1.839523
v -3.151184 3.306424 -1.839753
v 0.490436 -0.849426 -1.841748
v 0.490436 -0.849426 1.842651
v 0.043074 -0.429678 1.842651
v 0.043074 -0.429678 -1.841748
v -0.858213 0.511045 -2.479627
v -2.809808 2.080168 -2.479627
v -2.810002 2.080323 2.447343
v -0.858254 0.511078 2.447343
v 0.043074 -0.429678 2.447343
v 0.043074 -0.429678 -2.479627
v 0.490436 -0.849426 -2.479627
v 0.490436 -0.849426 2.447343
v -3.151100 1.656082 2.447299
v -3.151100 3.306380 2.447299
v -3.150906 1.655926 -2.479701
v -3.150906 3.306381 -2.479701
v 3.043795 -1.924311 -1.839752
v 2.551882 -1.706933 -1.839752
v 2.551882 -1.706933 1.840000
v 3.043795 -1.924311 1.840000
vt 0.385097 0.896126
vt 0.409046 0.829805
vt 0.407133 0.902563
vt 0.216663 0.793371
vt 0.249382 0.861919
vt 0.226549 0.870942
vt 0.445298 0.146803
vt 0.602911 0.253926
vt 0.445298 0.253936
vt 0.445298 0.078605
vt 0.602911 0.146801
vt 0.602911 0.078605
vt 0.524107 0.054052
vt 0.602911 0.054049
vt 0.445298 0.054049
vt 0.404245 0.101454
vt 0.413113 0.156899
vt 0.404254 0.155501
vt 0.413102 0.046009
vt 0.404242 0.047412
vt 0.760327 0.095081
vt 0.982180 0.012788
vt 0.980196 0.095081
vt 0.113609 0.745775
vt 0.096904 0.754841
vt 0.088683 0.742602
vt 0.279336 0.740657
vt 0.303244 0.753668
vt 0.273687 0.763173
vt 0.132068 0.156338
vt 0.043171 0.446905
vt 0.043171 0.156338
vt 0.132068 0.454112
vt 0.043171 0.454112
vt 0.088103 0.757284
vt 0.057466 0.741370
vt 0.315857 0.757378
vt 0.360162 0.734413
vt 0.360981 0.755636
vt 0.062377 0.524367
vt 0.093728 0.525755
vt 0.315038 0.736154
vt 0.341005 0.457051
vt 0.146765 0.446905
vt 0.132068 0.446905
vt 0.028474 0.446905
vt 0.028474 0.156338
vt 0.146765 0.454112
vt 0.028474 0.454112
vt 0.160944 0.174242
vt 0.160944 0.446905
vt 0.014295 0.174241
vt 0.014295 0.446905
vt 0.160944 0.454112
vt 0.014295 0.454112
vt 0.008500 0.554776
vt 0.027229 0.742564
vt 0.418278 0.499523
vt 0.048307 0.752920
vt 0.027219 0.757933
vt 0.403488 0.736152
vt 0.373275 0.750972
vt 0.132067 0.014448
vt 0.043171 0.028627
vt 0.043171 0.014448
vt 0.132068 0.468291
vt 0.146765 0.014448
vt 0.132067 0.028627
vt 0.028473 0.014448
vt 0.028473 0.028627
vt 0.056887 0.756052
vt 0.087251 0.778874
vt 0.056034 0.777641
vt 0.317061 0.788585
vt 0.362185 0.786844
vt 0.146765 0.468291
vt 0.028474 0.468291
vt 0.043171 0.468291
vt 0.982180 0.760712
vt 0.762311 0.792689
vt 0.762311 0.760712
vt 0.043171 0.141680
vt 0.095016 0.498276
vt 0.062130 0.496692
vt 0.296225 0.458337
vt 0.340134 0.417714
vt 0.132068 0.141680
vt 0.146765 0.156338
vt 0.028474 0.141680
vt 0.146765 0.141680
vt 0.160943 0.138423
vt 0.014295 0.138423
vt 0.146765 0.028627
vt 0.014295 0.028627
vt 0.008109 0.478490
vt 0.417007 0.389794
vt 0.180705 0.046109
vt 0.342841 0.156845
vt 0.180705 0.156843
vt 0.180704 0.027801
vt 0.342839 0.046106
vt 0.342840 0.175153
vt 0.180704 0.175151
vt 0.982180 0.792689
vt 0.762322 0.819130
vt 0.445439 0.022976
vt 0.602822 0.022976
vt 0.354575 0.156846
vt 0.354572 0.046105
vt 0.408794 0.966576
vt 0.416614 0.986009
vt 0.388109 0.956531
vt 0.223592 0.959910
vt 0.230513 0.938507
vt 0.251806 0.926212
vt 0.232721 0.921458
vt 0.405564 0.950636
vt 0.386485 0.935951
vt 0.251502 0.904378
vt 0.366616 0.896206
vt 0.386312 0.823886
vt 0.259453 0.782360
vt 0.240350 0.784567
vt 0.272426 0.903392
vt 0.365948 0.936533
vt 0.274443 0.925778
vt 0.255551 0.956609
vt 0.273669 0.955613
vt 0.386208 0.984811
vt 0.368415 0.984777
vt 0.339389 0.987605
vt 0.365950 0.956930
vt 0.305378 0.956494
vt 0.313146 0.856857
vt 0.318711 0.892404
vt 0.268052 0.860089
vt 0.276527 0.780522
vt 0.361290 0.011386
vt 0.342838 0.027798
vt 0.297631 0.006389
vt 0.354573 0.027813
vt 0.404241 0.027812
vt 0.257464 0.765163
vt 0.236836 0.759515
vt 0.351669 0.823433
vt 0.367492 0.823621
vt 0.367717 0.807561
vt 0.387183 0.800432
vt 0.404256 0.176100
vt 0.354581 0.176107
vt 0.363861 0.196808
vt 0.293163 0.203787
vt 0.982180 0.704764
vt 0.762282 0.672626
vt 0.982180 0.672626
vt 0.134816 0.588100
vt 0.237283 0.547553
vt 0.762311 0.012788
vt 0.117535 0.761502
vt 0.403488 0.758174
vt 0.295234 0.418840
vt 0.160943 0.028627
vt 0.982175 0.819130
vt 0.762282 0.704764
vt 0.125630 0.561951
vt 0.250481 0.510121
vn 0.0000 -0.0000 1.0000
vn -0.0000 0.0000 -1.0000
vn 0.9972 -0.0750 0.0001
vn 0.0072 1.0000 -0.0000
vn 0.1555 0.9878 -0.0000
vn 0.1544 0.9880 0.0002
vn 0.1546 0.9880 -0.0015
vn 1.0000 -0.0000 0.0001
vn 1.0000 0.0000 0.0000
vn 1.0000 0.0003 0.0001
vn 0.3173 0.9483 0.0000
vn 0.0000 -1.0000 -0.0000
vn 0.6208 0.7840 0.0000
vn 0.0387 0.9993 0.0000
vn -1.0000 -0.0000 -0.0000
vn -1.0000 -0.0002 -0.0003
vn 0.9727 0.2319 0.0000
vn 0.0000 1.0000 0.0000
vn 0.0017 0.0009 -1.0000
vn 0.0012 -0.0015 -1.0000
vn 0.0002 -0.0003 1.0000
vn 0.0155 -0.0117 -0.9998
vn 0.0158 -0.0136 -0.9998
vn -1.0000 0.0003 -0.0002
vn -0.9451 0.3269 0.0000
vn -0.9449 0.3273 0.0002
vn 0.2859 0.9583 -0.0010
vn 0.2846 0.9586 -0.0006
vn 0.2845 0.9587 0.0000
vn 0.2847 0.9586 0.0011
vn 0.2845 0.9587 -0.0005
vn 0.2846 0.9587 0.0000
vn 0.2848 0.9586 -0.0005
vn 1.0000 0.0001 0.0000
vn -0.0030 -0.0001 1.0000
vn -0.0038 0.0001 1.0000
vn -0.0040 -0.0011 1.0000
vn -0.0070 -0.0001 -1.0000
vn -0.0053 0.0013 -1.0000
vn -0.0061 -0.0017 -1.0000
vn -0.0012 -0.0015 -1.0000
vn -0.0014 0.0011 -1.0000
vn -0.0011 0.0005 1.0000
vn 0.6266 0.7793 0.0000
vn 0.7221 0.6918 0.0000
vn 0.6841 0.7294 -0.0012
vn 0.6842 0.7293 0.0000
vn 0.6833 0.7301 0.0012
vn -0.0033 0.0013 -1.0000
vn -0.0037 0.0016 -1.0000
vn -0.0018 0.0001 -1.0000
vn 0.2087 0.9780 0.0013
vn 0.2074 0.9782 0.0000
vn -0.0021 0.0008 1.0000
vn -0.0016 -0.0001 1.0000
vn 0.2086 0.9780 -0.0002
vn -0.0079 -0.0272 -0.9996
vn -0.0042 -0.0294 -0.9996
vn -0.0064 -0.0283 -0.9996
vn -0.0005 0.0002 1.0000
vn 0.0003 0.0003 1.0000
vn -0.0002 0.0004 1.0000
vn -0.0000 0.0004 1.0000
vn -0.0017 -0.0201 -0.9998
vn -0.0024 -0.0226 -0.9997
vn -0.0034 -0.0210 -0.9998
vn -0.0056 -0.0063 -1.0000
vn 0.0001 0.0001 1.0000
vn 1.0000 0.0000 0.0003
vn 1.0000 0.0001 -0.0009
vn 1.0000 0.0002 0.0001
vn 1.0000 0.0005 0.0001
vn -0.0003 0.0005 1.0000
vn -0.0003 0.0002 1.0000
vn 0.0013 -0.0000 1.0000
vn 0.0013 0.0003 1.0000
vn 0.0001 1.0000 0.0000
vn -0.8520 0.5086 -0.1238
vn 0.0124 -0.0098 -0.9999
vn -0.8527 0.5090 0.1174
vn -0.8526 0.5092 0.1175
vn 1.0000 0.0001 0.0001
vn 0.0001 1.0000 -0.0001
vn -0.0809 0.0000 -0.9967
vn 0.4042 0.9147 0.0000
vn 0.7178 0.6962 0.0000
vn -0.0002 -0.0003 -1.0000
vn -0.0000 -0.0006 -1.0000
vn 0.0053 1.0000 0.0000
vn 0.9972 -0.0751 0.0000
vn 0.0156 -0.0117 -0.9998
vn -0.9450 0.3272 0.0001
vn -0.0012 -0.0014 -1.0000
vn -0.0002 0.0011 1.0000
vn -0.0012 0.0001 1.0000
vn 0.6825 0.7309 0.0010
vn 0.2084 0.9780 0.0023
vn 0.2085 0.9780 -0.0002
vn -0.0025 -0.0226 -0.9997
vn -0.0056 -0.0064 -1.0000
vn 0.0000 1.0000 0.0001
vn 1.0000 -0.0000 -0.0001
vn 1.0000 0.0000 0.0004
vn -0.0001 -0.0005 -1.0000
s off
f 2/1/1 4/2/1 1/3/1
f 6/4/2 8/5/2 5/6/2
f 5/7/3 4/8/3 6/9/3
f 9/10/4 1/11/4 5/7/4
f 10/12/5 11/13/5 12/14/6
f 9/10/5 13/15/7 11/13/5
f 9/10/5 11/13/5 10/12/5
f 14/16/8 4/17/8 15/18/8
f 6/19/9 14/16/9 16/20/9
f 6/19/10 4/17/10 14/16/10
f 18/21/11 20/22/11 17/23/11
f 17/24/1 21/25/1 22/26/1
f 18/27/2 24/28/2 19/29/2
f 26/30/12 28/31/12 25/32/12
f 28/31/12 30/33/12 29/34/12
f 21/35/13 32/36/13 22/26/13
f 24/37/13 34/38/13 33/39/13
f 22/26/14 36/40/14 35/41/14
f 23/42/14 38/43/14 34/38/14
f 26/30/12 40/44/12 27/45/12
f 25/32/12 42/46/12 41/47/12
f 27/45/12 43/48/12 30/33/12
f 28/31/12 44/49/12 42/46/12
f 40/44/2 45/50/2 46/51/2
f 47/52/1 42/46/1 48/53/1
f 43/48/2 46/51/2 49/54/2
f 48/53/1 44/49/1 50/55/1
f 45/56/2 32/36/2 46/57/2
f 47/58/1 34/38/1 38/43/1
f 46/57/2 31/59/2 49/60/2
f 48/61/1 33/62/1 34/38/1
f 52/63/15 54/64/15 51/65/15
f 20/66/9 29/34/9 30/33/9
f 55/67/15 53/68/15 52/63/15
f 58/69/16 54/64/15 57/70/15
f 31/71/17 20/72/17 49/73/17
f 19/74/17 33/39/17 50/75/17
f 30/33/9 49/76/9 20/66/9
f 50/77/9 29/34/9 19/78/9
f 35/79/18 60/80/18 37/81/18
f 61/82/12 26/30/12 25/32/12
f 53/68/12 61/82/12 54/64/12
f 59/83/18 36/40/18 63/84/18
f 37/85/18 64/86/18 38/43/18
f 62/87/12 39/88/12 26/30/12
f 61/82/12 41/47/12 66/89/12
f 53/68/12 65/90/12 62/87/12
f 54/64/12 66/89/12 57/70/12
f 39/88/2 67/91/19 45/50/2
f 68/92/1 41/47/1 47/52/1
f 56/93/2 67/91/20 65/90/2
f 57/70/1 68/92/1 58/94/21
f 67/95/22 36/40/23 45/56/23
f 68/96/1 38/43/1 64/86/1
f 51/97/15 70/98/15 52/99/15
f 58/100/24 69/101/15 51/97/15
f 52/99/15 72/102/15 55/103/15
f 59/104/25 74/105/26 60/80/25
f 13/15/27 74/106/28 11/13/29
f 12/14/30 11/13/29 73/107/31
f 11/13/32 74/106/33 73/107/32
f 69/101/18 76/108/18 70/98/18
f 14/16/34 76/108/34 75/109/34
f 12/110/35 73/111/36 77/112/37
f 74/113/38 13/114/39 78/115/40
f 9/116/2 78/115/41 13/114/42
f 10/117/1 77/112/43 80/118/1
f 1/3/1 80/118/1 2/1/1
f 5/6/2 79/119/2 9/116/2
f 81/120/44 3/121/44 2/1/44
f 83/122/44 8/5/44 7/123/44
f 8/5/45 85/124/45 79/119/45
f 80/118/45 81/120/45 2/1/45
f 77/112/46 86/125/47 80/118/47
f 79/119/47 88/126/47 78/115/48
f 60/127/49 74/113/50 78/115/51
f 78/115/52 64/128/53 60/127/53
f 59/129/54 77/112/55 73/111/54
f 63/130/53 77/112/56 59/129/53
f 67/131/57 87/132/58 63/130/59
f 68/133/60 64/128/60 88/126/60
f 58/134/61 88/126/62 85/124/63
f 55/135/64 87/132/65 67/131/66
f 55/135/67 81/120/67 86/125/67
f 58/134/61 84/136/68 83/122/68
f 6/19/69 16/20/69 75/109/69
f 16/20/34 14/16/34 75/109/34
f 4/17/70 76/108/70 15/18/70
f 14/16/71 15/18/72 76/108/71
f 58/134/73 83/122/74 89/137/74
f 89/138/75 71/139/75 58/140/76
f 90/141/77 69/101/77 71/139/77
f 75/109/9 89/142/9 6/19/9
f 89/143/78 7/123/78 6/144/78
f 55/135/79 91/145/79 82/146/79
f 3/121/80 91/147/80 4/148/81
f 91/149/82 76/108/82 4/17/82
f 72/102/83 76/108/83 92/150/83
f 72/102/84 91/151/84 55/152/84
f 94/153/85 96/154/85 93/155/85
f 37/81/86 94/153/86 35/79/86
f 17/24/1 22/26/1 93/156/1
f 35/41/1 93/156/1 22/26/1
f 18/27/2 96/157/2 23/42/2
f 96/157/87 37/85/88 23/42/88
f 18/21/89 93/155/89 96/154/89
f 2/1/1 3/121/1 4/2/1
f 6/4/2 7/123/2 8/5/2
f 5/7/90 1/11/90 4/8/90
f 9/10/4 10/12/4 1/11/4
f 18/21/11 19/158/11 20/22/11
f 17/24/1 20/159/1 21/25/1
f 18/27/2 23/42/2 24/28/2
f 26/30/12 27/45/12 28/31/12
f 28/31/12 27/45/12 30/33/12
f 21/35/13 31/71/13 32/36/13
f 24/37/13 23/42/13 34/38/13
f 22/26/14 32/36/14 36/40/14
f 23/42/14 37/85/14 38/43/14
f 26/30/12 39/88/12 40/44/12
f 25/32/12 28/31/12 42/46/12
f 27/45/12 40/44/12 43/48/12
f 28/31/12 29/34/12 44/49/12
f 40/44/2 39/88/2 45/50/2
f 47/52/1 41/47/1 42/46/1
f 43/48/2 40/44/2 46/51/2
f 48/53/1 42/46/1 44/49/1
f 45/56/2 36/40/2 32/36/2
f 47/58/1 48/61/1 34/38/1
f 46/57/2 32/36/2 31/59/2
f 48/61/1 50/160/1 33/62/1
f 52/63/15 53/68/15 54/64/15
f 20/66/9 19/78/9 29/34/9
f 55/67/15 56/93/15 53/68/15
f 58/69/16 51/65/15 54/64/15
f 31/71/17 21/35/17 20/72/17
f 19/74/17 24/37/17 33/39/17
f 30/33/9 43/48/9 49/76/9
f 50/77/9 44/49/9 29/34/9
f 35/79/18 59/104/18 60/80/18
f 61/82/12 62/87/12 26/30/12
f 53/68/12 62/87/12 61/82/12
f 59/83/18 35/41/18 36/40/18
f 37/85/18 60/161/18 64/86/18
f 62/87/12 65/90/12 39/88/12
f 61/82/12 25/32/12 41/47/12
f 53/68/12 56/93/12 65/90/12
f 54/64/12 61/82/12 66/89/12
f 39/88/2 65/90/2 67/91/19
f 68/92/1 66/89/1 41/47/1
f 56/93/2 55/162/2 67/91/20
f 57/70/1 66/89/1 68/92/1
f 67/95/91 63/84/23 36/40/23
f 68/96/1 47/58/1 38/43/1
f 51/97/15 69/101/15 70/98/15
f 58/100/24 71/139/15 69/101/15
f 52/99/15 70/98/15 72/102/15
f 59/104/25 73/163/25 74/105/92
f 69/101/18 75/109/18 76/108/18
f 9/116/2 79/119/2 78/115/93
f 10/117/1 12/110/94 77/112/95
f 1/3/1 10/117/1 80/118/1
f 5/6/2 8/5/2 79/119/2
f 81/120/44 82/146/44 3/121/44
f 83/122/44 84/136/44 8/5/44
f 8/5/45 84/136/45 85/124/45
f 80/118/45 86/125/45 81/120/45
f 77/112/46 87/132/96 86/125/47
f 79/119/47 85/124/47 88/126/47
f 78/115/52 88/126/53 64/128/53
f 63/130/53 87/132/97 77/112/98
f 58/134/63 68/133/63 88/126/63
f 55/135/64 86/125/64 87/132/99
f 55/135/100 82/146/100 81/120/100
f 58/134/61 85/124/68 84/136/68
f 89/138/75 90/141/75 71/139/75
f 90/141/101 75/109/101 69/101/101
f 75/109/102 90/141/102 89/142/102
f 89/143/78 83/122/78 7/123/78
f 3/121/80 82/146/80 91/147/80
f 91/149/103 92/150/103 76/108/103
f 72/102/18 70/98/18 76/108/18
f 72/102/84 92/150/84 91/151/84
f 94/153/85 95/164/85 96/154/85
f 37/81/86 95/164/86 94/153/86
f 35/41/1 94/165/1 93/156/1
f 96/157/104 95/166/88 37/85/88
f 18/21/89 17/23/89 93/155/89
